<?xml version="1.0" encoding="UTF-8"?> <svg xmlns="http://www.w3.org/2000/svg" xmlns:xlink="http://www.w3.org/1999/xlink" version="1.1" id="Warstwa_1" x="0px" y="0px" viewBox="0 0 379 293" style="enable-background:new 0 0 379 293;" xml:space="preserve"> <style type="text/css"> .st0{fill:#F5F5F5;} .st1{opacity:0.5;} .st2{fill:#A3D5FF;} .st3{fill:#CDE0FB;} .st4{fill:#E0E0E0;} .st5{fill:#E7E7E7;} .st6{fill:#AFCDFB;} .st7{fill:#77A4E5;} .st8{fill:#74A4E5;} .st9{fill:#398AFF;} .st10{fill:#DCEAFF;} .st11{fill:#1A2E35;} .st12{opacity:0.4;fill:#5E92DD;enable-background:new ;} .st13{fill:#B6BCBE;} .st14{fill:#758286;} .st15{fill:url(#SVGID_1_);} .st16{fill:#FFC3BD;} .st17{fill:#0B0639;} .st18{fill:url(#SVGID_00000106843953496880429100000017034633339118032013_);} .st19{fill:url(#SVGID_00000177456580124472936530000015168664599890409602_);} .st20{opacity:0.4;fill:#ED975D;enable-background:new ;} .st21{fill:url(#SVGID_00000145051074826177106030000014381772701035643577_);} .st22{fill:#EBF3FA;} .st23{fill:#FFFFFF;} .st24{clip-path:url(#SVGID_00000150067089466529053440000003585625019138429626_);} .st25{fill:#88ADD8;} .st26{fill:#98B9EA;} .st27{clip-path:url(#SVGID_00000048490450454000312930000007719557487128363447_);} .st28{clip-path:url(#SVGID_00000176008935194452969710000015326266055613601710_);} .st29{clip-path:url(#SVGID_00000176041868758864206110000016097842962314702989_);} .st30{clip-path:url(#SVGID_00000109014605486667416250000012403955574587944085_);} .st31{clip-path:url(#SVGID_00000109724035018694425270000014458790719058662057_);} .st32{clip-path:url(#SVGID_00000020401139555981939350000012792223511963243703_);} .st33{fill:#699FF0;} .st34{fill:url(#SVGID_00000129204588108554717780000016650197696933524367_);} .st35{fill:url(#SVGID_00000181777633766036647820000013491334019758124680_);} .st36{fill:#466AA5;} </style> <ellipse id="_x3C_Path_x3E__00000123400728208562111930000010722548179225680525_" class="st0" cx="191.4" cy="214.5" rx="137.9" ry="5.3"></ellipse> <g class="st1"> <path class="st2" d="M242.2,87.5l6.7,25.6c0.3,1.1-0.4,2.3-1.5,2.6l-45,11.8c-1.1,0.3-2.3-0.4-2.6-1.5l-6.7-25.6 c-0.3-1.1,0.4-2.3,1.5-2.6l45-11.8C240.7,85.6,241.9,86.3,242.2,87.5z"></path> <g> <path class="st3" d="M215.1,118.1l-12,3.1c-0.5,0.1-1-0.2-1.2-0.7v-0.1c-0.1-0.5,0.2-1,0.7-1.2l12-3.1c0.5-0.1,1,0.2,1.2,0.7v0.1 C215.9,117.5,215.6,118,215.1,118.1z"></path> <path class="st3" d="M230.9,114l-12,3.1c-0.5,0.1-1-0.2-1.2-0.7v-0.1c-0.1-0.5,0.2-1,0.7-1.2l12-3.1c0.5-0.1,1,0.2,1.2,0.7v0.1 C231.7,113.3,231.4,113.9,230.9,114z"></path> <g> <path class="st3" d="M217.3,104.7c0.1,0.4,0.1,0.8,0.1,1.1c-0.1,0.4-0.3,0.7-0.7,0.8c-0.4,0.1-0.7,0-1-0.3 c-0.2-0.2-0.4-0.6-0.5-1s-0.1-0.8-0.1-1.1c0.1-0.4,0.4-0.7,0.8-0.8c0.4-0.1,0.7,0,1,0.3C217,104,217.2,104.3,217.3,104.7z M216.7,104.9c-0.1-0.3-0.2-0.5-0.3-0.7c-0.2-0.3-0.4-0.4-0.6-0.3c-0.2,0.1-0.3,0.2-0.4,0.5c0,0.2,0,0.4,0.1,0.7 c0.2,0.7,0.5,1.1,0.9,1c0.2-0.1,0.3-0.2,0.4-0.5C216.8,105.4,216.8,105.2,216.7,104.9z"></path> <path class="st3" d="M219.7,104.1c0.1,0.4,0.1,0.8,0.1,1.1c-0.1,0.4-0.3,0.7-0.7,0.8c-0.4,0.1-0.7,0-1-0.3 c-0.2-0.2-0.4-0.6-0.5-1s-0.1-0.8-0.1-1.1c0.1-0.4,0.4-0.7,0.8-0.8c0.4-0.1,0.7,0,1,0.3C219.5,103.3,219.6,103.7,219.7,104.1z M219.2,104.2c-0.1-0.3-0.2-0.5-0.3-0.7c-0.2-0.3-0.4-0.4-0.6-0.3c-0.2,0.1-0.3,0.2-0.4,0.5c0,0.2,0,0.4,0.1,0.7 c0.2,0.7,0.5,1.1,0.9,1c0.2-0.1,0.3-0.2,0.4-0.5C219.3,104.8,219.3,104.5,219.2,104.2z"></path> <path class="st3" d="M223.5,103.1c0.1,0.4,0.1,0.8,0.1,1.1c-0.1,0.4-0.3,0.7-0.7,0.8c-0.4,0.1-0.7,0-1-0.3 c-0.2-0.2-0.4-0.6-0.5-1s-0.1-0.8-0.1-1.1c0.1-0.4,0.4-0.7,0.8-0.8c0.4-0.1,0.7,0,1,0.3C223.2,102.3,223.4,102.7,223.5,103.1z M222.9,103.3c-0.1-0.3-0.2-0.5-0.3-0.7c-0.2-0.3-0.4-0.4-0.6-0.3c-0.2,0.1-0.3,0.2-0.4,0.5c0,0.2,0,0.4,0.1,0.7 c0.2,0.7,0.5,1.1,0.9,1c0.2-0.1,0.3-0.2,0.4-0.5C223,103.8,223,103.5,222.9,103.3z"></path> <path class="st3" d="M225.9,102.5c0.1,0.4,0.1,0.8,0.1,1.1c-0.1,0.4-0.3,0.7-0.7,0.8c-0.4,0.1-0.7,0-1-0.3 c-0.2-0.2-0.4-0.6-0.5-1s-0.1-0.8-0.1-1.1c0.1-0.4,0.4-0.7,0.8-0.8c0.4-0.1,0.7,0,1,0.3C225.7,101.7,225.8,102,225.9,102.5z M225.4,102.6c-0.1-0.3-0.2-0.5-0.3-0.7c-0.2-0.3-0.4-0.4-0.6-0.3c-0.2,0.1-0.3,0.2-0.4,0.5c0,0.2,0,0.4,0.1,0.7 c0.2,0.7,0.5,1.1,0.9,1c0.2-0.1,0.3-0.2,0.4-0.5C225.5,103.1,225.5,102.9,225.4,102.6z"></path> <path class="st3" d="M228.4,101.8c0.1,0.4,0.1,0.8,0.1,1.1c-0.1,0.4-0.3,0.7-0.7,0.8c-0.4,0.1-0.7,0-1-0.3 c-0.2-0.2-0.4-0.6-0.5-1s-0.1-0.8-0.1-1.1c0.1-0.4,0.4-0.7,0.8-0.8c0.4-0.1,0.7,0,1,0.3C228.1,101.1,228.3,101.4,228.4,101.8z M227.8,102c-0.1-0.3-0.2-0.5-0.3-0.7c-0.2-0.3-0.4-0.4-0.6-0.3c-0.2,0.1-0.3,0.2-0.4,0.5c0,0.2,0,0.4,0.1,0.7 c0.2,0.7,0.5,1.1,0.9,1c0.2-0.1,0.3-0.2,0.4-0.5C227.9,102.5,227.9,102.3,227.8,102z"></path> <path class="st3" d="M230.9,101.2c0.1,0.4,0.1,0.8,0.1,1.1c-0.1,0.4-0.3,0.7-0.7,0.8c-0.4,0.1-0.7,0-1-0.3 c-0.2-0.2-0.4-0.6-0.5-1s-0.1-0.8-0.1-1.1c0.1-0.4,0.4-0.7,0.8-0.8c0.4-0.1,0.7,0,1,0.3C230.6,100.4,230.7,100.8,230.9,101.2z M230.3,101.3c-0.1-0.3-0.2-0.5-0.3-0.7c-0.2-0.3-0.4-0.4-0.6-0.3c-0.2,0.1-0.3,0.2-0.4,0.5c0,0.2,0,0.4,0.1,0.7 c0.2,0.7,0.5,1.1,0.9,1c0.2-0.1,0.3-0.2,0.4-0.5C230.4,101.9,230.4,101.6,230.3,101.3z"></path> <path class="st3" d="M234.6,100.2c0.1,0.4,0.1,0.8,0.1,1.1c-0.1,0.4-0.3,0.7-0.7,0.8c-0.4,0.1-0.7,0-1-0.3 c-0.2-0.2-0.4-0.6-0.5-1s-0.1-0.8-0.1-1.1c0.1-0.4,0.4-0.7,0.8-0.8c0.4-0.1,0.7,0,1,0.3C234.3,99.4,234.5,99.8,234.6,100.2z M234,100.4c-0.1-0.3-0.2-0.5-0.3-0.7c-0.2-0.3-0.4-0.4-0.6-0.3c-0.2,0.1-0.3,0.2-0.4,0.5c0,0.2,0,0.4,0.1,0.7 c0.2,0.7,0.5,1.1,0.9,1c0.2-0.1,0.3-0.2,0.4-0.5C234.1,100.9,234.1,100.6,234,100.4z"></path> <path class="st3" d="M237,99.6c0.1,0.4,0.1,0.8,0.1,1.1c-0.1,0.4-0.3,0.7-0.7,0.8c-0.4,0.1-0.7,0-1-0.3c-0.2-0.2-0.4-0.6-0.5-1 s-0.1-0.8-0.1-1.1c0.1-0.4,0.4-0.7,0.8-0.8c0.4-0.1,0.7,0,1,0.3C236.8,98.8,236.9,99.1,237,99.6z M236.5,99.7 c-0.1-0.3-0.2-0.5-0.3-0.7c-0.2-0.3-0.4-0.4-0.6-0.3c-0.2,0.1-0.3,0.2-0.4,0.5c0,0.2,0,0.4,0.1,0.7c0.2,0.7,0.5,1.1,0.9,1 c0.2-0.1,0.3-0.2,0.4-0.5C236.6,100.2,236.6,100,236.5,99.7z"></path> <path class="st3" d="M239.5,98.9c0.1,0.4,0.1,0.8,0.1,1.1c-0.1,0.4-0.3,0.7-0.7,0.8c-0.4,0.1-0.7,0-1-0.3c-0.2-0.2-0.4-0.6-0.5-1 s-0.1-0.8-0.1-1.1c0.1-0.4,0.4-0.7,0.8-0.8c0.4-0.1,0.7,0,1,0.3C239.2,98.2,239.4,98.5,239.5,98.9z M239,99.1 c-0.1-0.3-0.2-0.5-0.3-0.7c-0.2-0.3-0.4-0.4-0.6-0.3c-0.2,0.1-0.3,0.2-0.4,0.5c0,0.2,0,0.4,0.1,0.7c0.2,0.7,0.5,1.1,0.9,1 c0.2-0.1,0.3-0.2,0.4-0.5C239.1,99.6,239,99.4,239,99.1z"></path> <path class="st3" d="M242,98.3c0.1,0.4,0.1,0.8,0.1,1.1c-0.1,0.4-0.3,0.7-0.7,0.8c-0.4,0.1-0.7,0-1-0.3c-0.2-0.2-0.4-0.6-0.5-1 s-0.1-0.8-0.1-1.1c0.1-0.4,0.4-0.7,0.8-0.8c0.4-0.1,0.7,0,1,0.3C241.7,97.5,241.9,97.9,242,98.3z M241.4,98.4 c-0.1-0.3-0.2-0.5-0.3-0.7c-0.2-0.3-0.4-0.4-0.6-0.3c-0.2,0.1-0.3,0.2-0.4,0.5c0,0.2,0,0.4,0.1,0.7c0.2,0.7,0.5,1.1,0.9,1 c0.2-0.1,0.3-0.2,0.4-0.5C241.5,98.9,241.5,98.7,241.4,98.4z"></path> </g> <path class="st3" d="M209.5,98l-11.7,3.1c-0.5,0.1-1-0.2-1.2-0.7l0,0c-0.1-0.5,0.2-1,0.7-1.2l11.7-3.1c0.5-0.1,1,0.2,1.2,0.7l0,0 C210.3,97.3,210,97.9,209.5,98z"></path> <g> <g> <path class="st3" d="M237.9,92.7c-0.1-0.3-0.3-0.6-0.5-0.8c-0.1-0.1-0.2,0-0.2,0V92c0,0.1,0,0.2,0,0.2c0.2,0.1,0.3,0.3,0.4,0.6 c0.1,0.2,0,0.5-0.1,0.7c0,0.1,0,0.2,0.1,0.2h0.1c0.1,0,0.2,0,0.2-0.1C237.9,93.3,238,93,237.9,92.7z"></path> </g> <g> <path class="st3" d="M238.7,92.5c-0.1-0.6-0.5-1-0.9-1.3c-0.1,0-0.2,0-0.2,0.1l0,0c0,0.1,0,0.2,0,0.2c0.4,0.2,0.6,0.6,0.8,1.1 c0.1,0.5,0.1,0.9-0.1,1.3c0,0.1,0,0.2,0.1,0.2l0,0c0.1,0,0.2,0,0.2-0.1C238.7,93.6,238.8,93,238.7,92.5z"></path> </g> <g> <path class="st3" d="M239.3,92.3c-0.2-0.7-0.6-1.3-1.2-1.7c-0.1,0-0.2,0-0.2,0.1l0,0c0,0.1,0,0.2,0.1,0.2 c0.5,0.3,0.9,0.9,1.1,1.5c0.2,0.7,0.1,1.3-0.2,1.9c0,0.1,0,0.2,0.1,0.2l0,0c0.1,0,0.2,0,0.2-0.1C239.4,93.8,239.5,93,239.3,92.3 z"></path> </g> <g> <path class="st3" d="M240,92.1c-0.2-0.9-0.8-1.7-1.6-2.2c-0.1,0-0.2,0-0.2,0.1v0.1c0,0.1,0,0.2,0.1,0.2c0.7,0.4,1.2,1.1,1.4,1.9 s0.1,1.7-0.3,2.4c0,0.1,0,0.2,0.1,0.2h0.1c0.1,0,0.2,0,0.2-0.1C240.1,94,240.3,93,240,92.1z"></path> </g> </g> <g> <g> <path class="st3" d="M203.8,123.3c0.1,0.2,0.1,0.4,0,0.5c0,0.2-0.2,0.3-0.4,0.4s-0.4,0-0.5-0.1s-0.2-0.3-0.2-0.5 c-0.1-0.2-0.1-0.4,0-0.5c0-0.2,0.2-0.3,0.4-0.4s0.4,0,0.5,0.1C203.6,123,203.7,123.1,203.8,123.3z M203.5,123.4 c0-0.1-0.1-0.2-0.1-0.3c-0.1-0.1-0.2-0.2-0.3-0.1c-0.1,0-0.2,0.1-0.2,0.3c0,0.1,0,0.2,0,0.3c0.1,0.4,0.2,0.5,0.4,0.5 c0.1,0,0.2-0.1,0.2-0.3C203.6,123.7,203.6,123.5,203.5,123.4z"></path> <path class="st3" d="M205,123c0.1,0.2,0.1,0.4,0,0.5c0,0.2-0.2,0.3-0.4,0.4s-0.4,0-0.5-0.1s-0.2-0.3-0.2-0.5 c-0.1-0.2-0.1-0.4,0-0.5c0-0.2,0.2-0.3,0.4-0.4s0.4,0,0.5,0.1C204.8,122.7,204.9,122.8,205,123z M204.7,123.1 c0-0.1-0.1-0.2-0.1-0.3c-0.1-0.1-0.2-0.2-0.3-0.1c-0.1,0-0.2,0.1-0.2,0.3c0,0.1,0,0.2,0,0.3c0.1,0.4,0.2,0.5,0.4,0.5 c0.1,0,0.2-0.1,0.2-0.3C204.8,123.4,204.7,123.2,204.7,123.1z"></path> <path class="st3" d="M205.7,122.1C205.7,122.1,205.7,122.2,205.7,122.1l-0.3,1.5c0,0.1,0,0.1-0.1,0.1h-0.1c0,0,0,0-0.1-0.1v-0.1 l0.3-1.4c0-0.1,0-0.1,0.1-0.1C205.6,122,205.6,122,205.7,122.1L205.7,122.1z"></path> <path class="st3" d="M207,122.5c0.1,0.2,0.1,0.4,0,0.5c0,0.2-0.2,0.3-0.4,0.4s-0.4,0-0.5-0.1s-0.2-0.3-0.2-0.5 c-0.1-0.2-0.1-0.4,0-0.5c0-0.2,0.2-0.3,0.4-0.4s0.4,0,0.5,0.1C206.8,122.1,206.9,122.3,207,122.5z M206.7,122.6 c0-0.1-0.1-0.2-0.1-0.3c-0.1-0.1-0.2-0.2-0.3-0.1c-0.1,0-0.2,0.1-0.2,0.3c0,0.1,0,0.2,0,0.3c0.1,0.4,0.2,0.5,0.4,0.5 c0.1,0,0.2-0.1,0.2-0.3C206.8,122.8,206.7,122.7,206.7,122.6z"></path> <path class="st3" d="M208.2,122.2c0.1,0.2,0.1,0.4,0,0.5c0,0.2-0.2,0.3-0.4,0.4s-0.4,0-0.5-0.1s-0.2-0.3-0.2-0.5 c-0.1-0.2-0.1-0.4,0-0.5c0-0.2,0.2-0.3,0.4-0.4s0.4,0,0.5,0.1C208,121.8,208.1,122,208.2,122.2z M207.9,122.3 c0-0.1-0.1-0.2-0.1-0.3c-0.1-0.1-0.2-0.2-0.3-0.1c-0.1,0-0.2,0.1-0.2,0.3c0,0.1,0,0.2,0,0.3c0.1,0.4,0.2,0.5,0.4,0.5 c0.1,0,0.2-0.1,0.2-0.3C207.9,122.5,207.9,122.4,207.9,122.3z"></path> <path class="st3" d="M209.3,121.9c0.1,0.2,0.1,0.4,0,0.5c0,0.2-0.2,0.3-0.4,0.4s-0.4,0-0.5-0.1s-0.2-0.3-0.2-0.5 c-0.1-0.2-0.1-0.4,0-0.5c0-0.2,0.2-0.3,0.4-0.4s0.4,0,0.5,0.1C209.2,121.5,209.3,121.7,209.3,121.9z M209.1,122 c0-0.1-0.1-0.2-0.1-0.3c-0.1-0.1-0.2-0.2-0.3-0.1c-0.1,0-0.2,0.1-0.2,0.3c0,0.1,0,0.2,0,0.3c0.1,0.4,0.2,0.5,0.4,0.5 c0.1,0,0.2-0.1,0.2-0.3C209.1,122.2,209.1,122.1,209.1,122z"></path> <path class="st3" d="M210.5,121.6c0.1,0.2,0.1,0.4,0,0.5c0,0.2-0.2,0.3-0.4,0.4s-0.4,0-0.5-0.1s-0.2-0.3-0.2-0.5 c-0.1-0.2-0.1-0.4,0-0.5c0-0.2,0.2-0.3,0.4-0.4s0.4,0,0.5,0.1C210.4,121.2,210.5,121.4,210.5,121.6z M210.3,121.6 c0-0.1-0.1-0.2-0.1-0.3c-0.1-0.1-0.2-0.2-0.3-0.1c-0.1,0-0.2,0.1-0.2,0.3c0,0.1,0,0.2,0,0.3c0.1,0.4,0.2,0.5,0.4,0.5 c0.1,0,0.2-0.1,0.2-0.3C210.3,121.9,210.3,121.8,210.3,121.6z"></path> </g> </g> </g> </g> <g> <rect x="201.2" y="207.9" class="st4" width="108.5" height="1.6"></rect> <rect x="200.1" y="209.5" class="st0" width="110.8" height="1.6"></rect> <rect x="198.5" y="211.1" class="st4" width="113.8" height="1.6"></rect> <g> <rect x="203.7" y="148" class="st5" width="101.5" height="60"></rect> <polygon class="st5" points="312.1,149.1 197.7,149.1 255.9,119.6 "></polygon> <polygon class="st0" points="215.1,145.2 294.7,145 255.9,124.8 "></polygon> <rect x="200.7" y="149.1" class="st0" width="109" height="2.5"></rect> <g> <rect x="208.8" y="149.1" class="st4" width="10.7" height="3.8"></rect> <rect x="211.2" y="152.9" class="st4" width="5.9" height="55"></rect> </g> <g> <rect x="232" y="149.1" class="st4" width="10.7" height="3.8"></rect> <rect x="234.4" y="152.9" class="st4" width="5.9" height="55"></rect> </g> <g> <rect x="268.4" y="149.1" class="st4" width="10.7" height="3.8"></rect> <rect x="270.9" y="152.9" class="st4" width="5.9" height="55"></rect> </g> <g> <rect x="290.3" y="149.1" class="st4" width="10.7" height="3.8"></rect> <rect x="292.7" y="152.9" class="st4" width="5.9" height="55"></rect> </g> <g> <path class="st4" d="M257.2,137.6c0-0.2,0-0.3-0.1-0.5c0-0.1-0.1-0.3-0.2-0.4c-0.1-0.1-0.3-0.2-0.4-0.3c-0.2-0.1-0.4-0.2-0.7-0.3 c-0.5-0.2-0.9-0.3-1.2-0.5c-0.4-0.2-0.7-0.4-0.9-0.6c-0.3-0.2-0.5-0.5-0.6-0.8s-0.2-0.7-0.2-1.1c0-0.4,0.1-0.7,0.2-1 c0.1-0.3,0.3-0.6,0.6-0.8c0.2-0.2,0.5-0.4,0.9-0.5c0.3-0.1,0.7-0.2,1.1-0.3v-1.4h1.1v1.4c0.4,0.1,0.8,0.2,1.1,0.3 c0.3,0.2,0.6,0.4,0.8,0.6c0.2,0.3,0.4,0.6,0.5,0.9c0.1,0.3,0.2,0.7,0.2,1.2h-2c0-0.5-0.1-0.9-0.3-1.2c-0.2-0.3-0.5-0.4-0.9-0.4 c-0.2,0-0.4,0-0.5,0.1c-0.2,0.1-0.3,0.1-0.4,0.2c-0.1,0.1-0.2,0.2-0.2,0.4c0,0.1-0.1,0.3-0.1,0.4c0,0.2,0,0.3,0.1,0.4 c0,0.1,0.1,0.2,0.2,0.4c0.1,0.1,0.3,0.2,0.4,0.3c0.2,0.1,0.4,0.2,0.7,0.3c0.4,0.2,0.9,0.4,1.2,0.5c0.4,0.2,0.7,0.4,0.9,0.6 c0.3,0.2,0.5,0.5,0.6,0.8s0.2,0.7,0.2,1.1c0,0.4-0.1,0.7-0.2,1s-0.3,0.6-0.6,0.8c-0.2,0.2-0.5,0.4-0.9,0.5 c-0.3,0.1-0.7,0.2-1.1,0.2v1.3h-1.1v-1.3c-0.4,0-0.8-0.1-1.1-0.3c-0.4-0.1-0.7-0.3-0.9-0.6c-0.3-0.2-0.5-0.6-0.7-0.9 s-0.2-0.8-0.2-1.3h2c0,0.3,0,0.6,0.1,0.8s0.2,0.4,0.3,0.5s0.3,0.2,0.5,0.3s0.4,0.1,0.6,0.1c0.2,0,0.4,0,0.6-0.1s0.3-0.1,0.4-0.2 c0.1-0.1,0.2-0.2,0.3-0.3C257.2,137.9,257.2,137.8,257.2,137.6z"></path> </g> <path class="st0" d="M261.8,207.9h-14.7v-16.1c0-3.8,3.1-6.9,6.9-6.9h1.3c3.6,0,6.5,2.9,6.5,6.5V207.9z"></path> <path class="st0" d="M249.6,173.1h-7v-7.6c0-1.8,1.5-3.3,3.3-3.3h0.6c1.7,0,3.1,1.4,3.1,3.1L249.6,173.1L249.6,173.1z"></path> <path class="st0" d="M229.2,173.1h-7v-7.6c0-1.8,1.5-3.3,3.3-3.3h0.6c1.7,0,3.1,1.4,3.1,3.1L229.2,173.1L229.2,173.1z"></path> <path class="st0" d="M229.2,196.4h-7v-7.6c0-1.8,1.5-3.3,3.3-3.3h0.6c1.7,0,3.1,1.4,3.1,3.1L229.2,196.4L229.2,196.4z"></path> <path class="st0" d="M288.2,173.1h-7v-7.6c0-1.8,1.5-3.3,3.3-3.3h0.6c1.7,0,3.1,1.4,3.1,3.1V173.1z"></path> <path class="st0" d="M288.2,196.4h-7v-7.6c0-1.8,1.5-3.3,3.3-3.3h0.6c1.7,0,3.1,1.4,3.1,3.1V196.4z"></path> <path class="st0" d="M267.2,173.1h-7v-7.6c0-1.8,1.5-3.3,3.3-3.3h0.6c1.7,0,3.1,1.4,3.1,3.1V173.1z"></path> </g> </g> <g> <polygon class="st5" points="167.2,98.1 173.1,129.2 131.7,137.1 131.7,137.1 114.2,140.4 108.3,109.3 140.9,103.1 "></polygon> <g> <path class="st0" d="M164.5,102.2l4.6,24.1l-52.9,10l-4.6-24.1L164.5,102.2z M167.8,123.5l-3.4-18.2c-0.2-1.2-1.4-2-2.7-1.8 l-47,8.9c-1.3,0.2-2.1,1.5-1.8,2.7l3.4,18.1c0.2,1.2,1.4,2.1,2.7,1.8l47-8.9C167.2,126,168,124.8,167.8,123.5z"></path> </g> <ellipse transform="matrix(0.8677 -0.4971 0.4971 0.8677 -40.7454 85.5265)" class="st0" cx="140.3" cy="119.3" rx="6.6" ry="6.6"></ellipse> </g> <g> <path class="st6" d="M235.2,210.4v1.7c0,0.1,0,0.3-0.1,0.4c-0.1,0.1-0.2,0.2-0.3,0.2h-0.1h-0.1h-26.5c-0.3,0-0.6-0.3-0.6-0.6l0,0 v-1.7l0,0c0-0.3,0.3-0.6,0.6-0.6h26.5h0.1h0.1c0.1,0,0.2,0.1,0.3,0.2C235.2,210.2,235.2,210.3,235.2,210.4z"></path> <path class="st7" d="M220.5,209.8H208c-0.3,0-0.6,0.3-0.6,0.6l0,0v1.7l0,0c0,0.3,0.3,0.6,0.6,0.6h9.2l0,0h0.3l0,0h2.2l0,0h0.3l0,0 h2.2C221.1,211.8,220.7,210.6,220.5,209.8z"></path> <rect x="231.7" y="209.8" class="st7" width="0.3" height="2.9"></rect> <rect x="230.7" y="209.8" class="st7" width="0.3" height="2.9"></rect> <rect x="229.5" y="209.8" class="st7" width="0.3" height="2.9"></rect> <rect x="227.6" y="209.8" class="st7" width="0.3" height="2.9"></rect> <rect x="225.6" y="209.8" class="st7" width="0.3" height="2.9"></rect> <rect x="222.6" y="209.8" class="st7" width="0.3" height="2.9"></rect> <rect x="232.7" y="209.8" class="st7" width="0.3" height="2.9"></rect> <rect x="233.3" y="209.8" class="st7" width="0.3" height="2.9"></rect> <rect x="233.9" y="209.8" class="st7" width="0.3" height="2.9"></rect> <path class="st7" d="M234.4,209.8v2.9h0.2h0.1v-2.9h-0.1H234.4z"></path> <path class="st7" d="M234.8,209.8v2.9c0.1,0,0.2-0.1,0.3-0.2v-2.4C235.1,210,235,209.9,234.8,209.8z"></path> <path class="st6" d="M234,207.5v1.7c0,0.1,0,0.3-0.1,0.4c-0.1,0.1-0.2,0.2-0.3,0.2h-0.1h-0.1h-26.5c-0.3,0-0.6-0.3-0.6-0.6l0,0 v-1.7l0,0c0-0.3,0.3-0.6,0.6-0.6h26.5h0.1h0.1c0.1,0,0.2,0.1,0.3,0.2C234,207.2,234,207.3,234,207.5z"></path> <path class="st7" d="M219.3,206.8h-12.5c-0.3,0-0.6,0.3-0.6,0.6l0,0v1.7l0,0c0,0.3,0.3,0.6,0.6,0.6h9.2l0,0h0.3l0,0h2.2l0,0h0.3 l0,0h2.2C219.9,208.9,219.5,207.7,219.3,206.8z"></path> <rect x="230.5" y="206.8" class="st7" width="0.3" height="2.9"></rect> <rect x="229.5" y="206.8" class="st7" width="0.3" height="2.9"></rect> <rect x="228.3" y="206.8" class="st7" width="0.3" height="2.9"></rect> <rect x="226.4" y="206.8" class="st7" width="0.3" height="2.9"></rect> <rect x="224.4" y="206.8" class="st7" width="0.3" height="2.9"></rect> <rect x="221.4" y="206.8" class="st7" width="0.3" height="2.9"></rect> <rect x="231.5" y="206.8" class="st7" width="0.3" height="2.9"></rect> <rect x="232.1" y="206.8" class="st7" width="0.3" height="2.9"></rect> <rect x="232.7" y="206.8" class="st7" width="0.3" height="2.9"></rect> <path class="st7" d="M233.2,206.8v2.9h0.2h0.1v-2.9h-0.1H233.2z"></path> <path class="st7" d="M233.6,206.9v2.9c0.1,0,0.2-0.1,0.3-0.2v-2.4C233.9,207,233.7,206.9,233.6,206.9z"></path> <path class="st6" d="M235.4,204.5v1.7c0,0.1,0,0.3-0.1,0.4c-0.1,0.1-0.2,0.2-0.3,0.2h-0.1h-0.1h-26.5c-0.3,0-0.6-0.3-0.6-0.6l0,0 v-1.7l0,0c0-0.3,0.3-0.6,0.6-0.6h26.5h0.1h0.1c0.1,0,0.2,0.1,0.3,0.2C235.4,204.3,235.4,204.4,235.4,204.5z"></path> <path class="st7" d="M220.6,203.9h-12.5c-0.3,0-0.6,0.3-0.6,0.6l0,0v1.7l0,0c0,0.3,0.3,0.6,0.6,0.6h9.2l0,0h0.3l0,0h2.2l0,0h0.3 l0,0h2.2C221.3,205.9,220.8,204.7,220.6,203.9z"></path> <rect x="231.9" y="203.9" class="st7" width="0.3" height="2.9"></rect> <rect x="230.9" y="203.9" class="st7" width="0.3" height="2.9"></rect> <rect x="229.6" y="203.9" class="st7" width="0.3" height="2.9"></rect> <rect x="227.8" y="203.9" class="st7" width="0.3" height="2.9"></rect> <rect x="225.8" y="203.9" class="st7" width="0.3" height="2.9"></rect> <rect x="222.7" y="203.9" class="st7" width="0.3" height="2.9"></rect> <rect x="232.9" y="203.9" class="st7" width="0.3" height="2.9"></rect> <rect x="233.5" y="203.9" class="st7" width="0.3" height="2.9"></rect> <rect x="234.1" y="203.9" class="st7" width="0.3" height="2.9"></rect> <path class="st7" d="M234.6,203.9v2.9h0.2h0.1v-2.9h-0.1H234.6z"></path> <path class="st7" d="M235,203.9v2.9c0.1,0,0.2-0.1,0.3-0.2v-2.4C235.2,204,235.1,204,235,203.9z"></path> <path class="st6" d="M234,201.6v1.7c0,0.1,0,0.3-0.1,0.4c-0.1,0.1-0.2,0.2-0.3,0.2h-0.1h-0.1h-26.5c-0.3,0-0.6-0.3-0.6-0.6l0,0 v-1.7l0,0c0-0.3,0.3-0.6,0.6-0.6h26.5h0.1h0.1c0.1,0,0.2,0.1,0.3,0.2C234,201.3,234,201.4,234,201.6z"></path> <path class="st7" d="M219.3,200.9h-12.5c-0.3,0-0.6,0.3-0.6,0.6l0,0v1.7l0,0c0,0.3,0.3,0.6,0.6,0.6h9.2l0,0h0.3l0,0h2.2l0,0h0.3 l0,0h2.2C219.9,203,219.5,201.8,219.3,200.9z"></path> <rect x="230.5" y="200.9" class="st7" width="0.3" height="2.9"></rect> <rect x="229.5" y="200.9" class="st7" width="0.3" height="2.9"></rect> <rect x="228.3" y="200.9" class="st7" width="0.3" height="2.9"></rect> <rect x="226.4" y="200.9" class="st7" width="0.3" height="2.9"></rect> <rect x="224.4" y="200.9" class="st7" width="0.3" height="2.9"></rect> <rect x="221.4" y="200.9" class="st7" width="0.3" height="2.9"></rect> <rect x="231.5" y="200.9" class="st7" width="0.3" height="2.9"></rect> <rect x="232.1" y="200.9" class="st7" width="0.3" height="2.9"></rect> <rect x="232.7" y="200.9" class="st7" width="0.3" height="2.9"></rect> <path class="st7" d="M233.2,200.9v2.9h0.2h0.1v-2.9h-0.1H233.2z"></path> <path class="st7" d="M233.6,201v2.9c0.1,0,0.2-0.1,0.3-0.2v-2.4C233.9,201.1,233.7,201,233.6,201z"></path> <path class="st6" d="M234,198.6v1.7c0,0.1,0,0.3-0.1,0.4c-0.1,0.1-0.2,0.2-0.3,0.2h-0.1h-0.1h-26.5c-0.3,0-0.6-0.3-0.6-0.6l0,0 v-1.7l0,0c0-0.3,0.3-0.6,0.6-0.6h26.5h0.1h0.1c0.1,0,0.2,0.1,0.3,0.2C234,198.3,234,198.5,234,198.6z"></path> <path class="st7" d="M219.3,198h-12.5c-0.3,0-0.6,0.3-0.6,0.6l0,0v1.7l0,0c0,0.3,0.3,0.6,0.6,0.6h9.2l0,0h0.3l0,0h2.2l0,0h0.3l0,0 h2.2C219.9,200,219.5,198.8,219.3,198z"></path> <rect x="230.5" y="198" class="st7" width="0.3" height="2.9"></rect> <rect x="229.5" y="198" class="st7" width="0.3" height="2.9"></rect> <rect x="228.3" y="198" class="st7" width="0.3" height="2.9"></rect> <rect x="226.4" y="198" class="st7" width="0.3" height="2.9"></rect> <rect x="224.4" y="198" class="st7" width="0.3" height="2.9"></rect> <rect x="221.4" y="198" class="st7" width="0.3" height="2.9"></rect> <rect x="231.5" y="198" class="st7" width="0.3" height="2.9"></rect> <rect x="232.1" y="198" class="st7" width="0.3" height="2.9"></rect> <rect x="232.7" y="198" class="st7" width="0.3" height="2.9"></rect> <path class="st7" d="M233.2,198v2.9h0.2h0.1V198h-0.1H233.2z"></path> <path class="st7" d="M233.6,198v2.9c0.1,0,0.2-0.1,0.3-0.2v-2.4C233.9,198.1,233.7,198,233.6,198z"></path> <path class="st6" d="M232.4,195.6v1.7c0,0.1,0,0.3-0.1,0.4c-0.1,0.1-0.2,0.2-0.3,0.2h-0.1h-0.1h-26.5c-0.3,0-0.6-0.3-0.6-0.6l0,0 v-1.7l0,0c0-0.3,0.3-0.6,0.6-0.6h26.5h0.1h0.1c0.1,0,0.2,0.1,0.3,0.2C232.4,195.4,232.4,195.5,232.4,195.6z"></path> <path class="st7" d="M217.7,195h-12.5c-0.3,0-0.6,0.3-0.6,0.6l0,0v1.7l0,0c0,0.3,0.3,0.6,0.6,0.6h9.2l0,0h0.3l0,0h2.2l0,0h0.3l0,0 h2.2C218.3,197.1,217.9,195.9,217.7,195z"></path> <rect x="228.9" y="195" class="st7" width="0.3" height="2.9"></rect> <rect x="227.9" y="195" class="st7" width="0.3" height="2.9"></rect> <rect x="226.6" y="195" class="st7" width="0.3" height="2.9"></rect> <rect x="224.8" y="195" class="st7" width="0.3" height="2.9"></rect> <rect x="222.8" y="195" class="st7" width="0.3" height="2.9"></rect> <rect x="219.7" y="195" class="st7" width="0.3" height="2.9"></rect> <rect x="229.9" y="195" class="st7" width="0.3" height="2.9"></rect> <rect x="230.5" y="195" class="st7" width="0.3" height="2.9"></rect> <rect x="231.1" y="195" class="st7" width="0.3" height="2.9"></rect> <path class="st7" d="M231.6,195v2.9h0.2h0.1V195h-0.1H231.6z"></path> <path class="st7" d="M232,195v2.9c0.1,0,0.2-0.1,0.3-0.2v-2.4C232.2,195.2,232.1,195.1,232,195z"></path> <path class="st6" d="M233.3,192.7v1.7c0,0.1,0,0.3-0.1,0.4c-0.1,0.1-0.2,0.2-0.3,0.2h-0.1h-0.1h-26.5c-0.3,0-0.6-0.3-0.6-0.6l0,0 v-1.7l0,0c0-0.3,0.3-0.6,0.6-0.6h26.5h0.1h0.1c0.1,0,0.2,0.1,0.3,0.2C233.3,192.4,233.3,192.5,233.3,192.7z"></path> <path class="st7" d="M218.5,192H206c-0.3,0-0.6,0.3-0.6,0.6l0,0v1.7l0,0c0,0.3,0.3,0.6,0.6,0.6h9.2l0,0h0.3l0,0h2.2l0,0h0.3l0,0 h2.2C219.2,194.1,218.7,192.9,218.5,192z"></path> <rect x="229.8" y="192" class="st7" width="0.3" height="2.9"></rect> <rect x="228.8" y="192" class="st7" width="0.3" height="2.9"></rect> <rect x="227.5" y="192" class="st7" width="0.3" height="2.9"></rect> <rect x="225.7" y="192" class="st7" width="0.3" height="2.9"></rect> <rect x="223.7" y="192" class="st7" width="0.3" height="2.9"></rect> <rect x="220.6" y="192" class="st7" width="0.3" height="2.9"></rect> <rect x="230.7" y="192" class="st7" width="0.3" height="2.9"></rect> <rect x="231.4" y="192" class="st7" width="0.3" height="2.9"></rect> <rect x="232" y="192" class="st7" width="0.3" height="2.9"></rect> <path class="st7" d="M232.5,192v2.9h0.2h0.1V192h-0.1H232.5z"></path> <path class="st7" d="M232.9,192.1v2.9c0.1,0,0.2-0.1,0.3-0.2v-2.4C233.1,192.2,233,192.1,232.9,192.1z"></path> <path class="st6" d="M235.2,189.7v1.7c0,0.1,0,0.3-0.1,0.4c-0.1,0.1-0.2,0.2-0.3,0.2h-0.1h-0.1h-26.5c-0.3,0-0.6-0.3-0.6-0.6l0,0 v-1.7l0,0c0-0.3,0.3-0.6,0.6-0.6h26.5h0.1h0.1c0.1,0,0.2,0.1,0.3,0.2C235.2,189.5,235.2,189.6,235.2,189.7z"></path> <path class="st7" d="M220.5,189.1H208c-0.3,0-0.6,0.3-0.6,0.6l0,0v1.7l0,0c0,0.3,0.3,0.6,0.6,0.6h9.2l0,0h0.3l0,0h2.2l0,0h0.3l0,0 h2.2C221.1,191.2,220.7,190,220.5,189.1z"></path> <rect x="231.7" y="189.1" class="st7" width="0.3" height="2.9"></rect> <rect x="230.7" y="189.1" class="st7" width="0.3" height="2.9"></rect> <rect x="229.5" y="189.1" class="st7" width="0.3" height="2.9"></rect> <rect x="227.6" y="189.1" class="st7" width="0.3" height="2.9"></rect> <rect x="225.6" y="189.1" class="st7" width="0.3" height="2.9"></rect> <rect x="222.6" y="189.1" class="st7" width="0.3" height="2.9"></rect> <rect x="232.7" y="189.1" class="st7" width="0.3" height="2.9"></rect> <rect x="233.3" y="189.1" class="st7" width="0.3" height="2.9"></rect> <rect x="233.9" y="189.1" class="st7" width="0.3" height="2.9"></rect> <path class="st7" d="M234.4,189.1v2.9h0.2h0.1v-2.9h-0.1H234.4z"></path> <path class="st7" d="M234.8,189.1v2.9c0.1,0,0.2-0.1,0.3-0.2v-2.4C235.1,189.3,235,189.2,234.8,189.1z"></path> <path class="st6" d="M234,186.8v1.7c0,0.1,0,0.3-0.1,0.4c-0.1,0.1-0.2,0.2-0.3,0.2h-0.1h-0.1h-26.5c-0.3,0-0.6-0.3-0.6-0.6l0,0 v-1.7l0,0c0-0.3,0.3-0.6,0.6-0.6h26.5h0.1h0.1c0.1,0,0.2,0.1,0.3,0.2C234,186.5,234,186.6,234,186.8z"></path> <path class="st7" d="M219.3,186.1h-12.5c-0.3,0-0.6,0.3-0.6,0.6l0,0v1.7l0,0c0,0.3,0.3,0.6,0.6,0.6h9.2l0,0h0.3l0,0h2.2l0,0h0.3 l0,0h2.2C219.9,188.2,219.5,187,219.3,186.1z"></path> <rect x="230.5" y="186.1" class="st7" width="0.3" height="2.9"></rect> <rect x="229.5" y="186.1" class="st7" width="0.3" height="2.9"></rect> <rect x="228.3" y="186.1" class="st7" width="0.3" height="2.9"></rect> <rect x="226.4" y="186.1" class="st7" width="0.3" height="2.9"></rect> <rect x="224.4" y="186.1" class="st7" width="0.3" height="2.9"></rect> <rect x="221.4" y="186.1" class="st7" width="0.3" height="2.9"></rect> <rect x="231.5" y="186.1" class="st7" width="0.3" height="2.9"></rect> <rect x="232.1" y="186.1" class="st7" width="0.3" height="2.9"></rect> <rect x="232.7" y="186.1" class="st7" width="0.3" height="2.9"></rect> <path class="st7" d="M233.2,186.1v2.9h0.2h0.1v-2.9h-0.1H233.2z"></path> <path class="st7" d="M233.6,186.2v2.9c0.1,0,0.2-0.1,0.3-0.2v-2.4C233.9,186.3,233.7,186.2,233.6,186.2z"></path> <path class="st6" d="M235.4,183.8v1.7c0,0.1,0,0.3-0.1,0.4c-0.1,0.1-0.2,0.2-0.3,0.2h-0.1h-0.1h-26.5c-0.3,0-0.6-0.3-0.6-0.6l0,0 v-1.7l0,0c0-0.3,0.3-0.6,0.6-0.6h26.5h0.1h0.1c0.1,0,0.2,0.1,0.3,0.2C235.4,183.6,235.4,183.7,235.4,183.8z"></path> <path class="st7" d="M220.6,183.2h-12.5c-0.3,0-0.6,0.3-0.6,0.6l0,0v1.7l0,0c0,0.3,0.3,0.6,0.6,0.6h9.2l0,0h0.3l0,0h2.2l0,0h0.3 l0,0h2.2C221.3,185.2,220.8,184,220.6,183.2z"></path> <rect x="231.9" y="183.2" class="st7" width="0.3" height="2.9"></rect> <rect x="230.9" y="183.2" class="st7" width="0.3" height="2.9"></rect> <rect x="229.6" y="183.2" class="st7" width="0.3" height="2.9"></rect> <rect x="227.8" y="183.2" class="st7" width="0.3" height="2.9"></rect> <rect x="225.8" y="183.2" class="st7" width="0.3" height="2.9"></rect> <rect x="222.7" y="183.2" class="st7" width="0.3" height="2.9"></rect> <rect x="232.9" y="183.2" class="st7" width="0.3" height="2.9"></rect> <rect x="233.5" y="183.2" class="st7" width="0.3" height="2.9"></rect> <rect x="234.1" y="183.2" class="st7" width="0.3" height="2.9"></rect> <path class="st7" d="M234.6,183.2v2.9h0.2h0.1v-2.9h-0.1H234.6z"></path> <path class="st7" d="M235,183.2v2.9c0.1,0,0.2-0.1,0.3-0.2v-2.4C235.2,183.3,235.1,183.3,235,183.2z"></path> <path class="st6" d="M234,180.9v1.7c0,0.1,0,0.3-0.1,0.4c-0.1,0.1-0.2,0.2-0.3,0.2h-0.1h-0.1h-26.5c-0.3,0-0.6-0.3-0.6-0.6l0,0 v-1.7l0,0c0-0.3,0.3-0.6,0.6-0.6h26.5h0.1h0.1c0.1,0,0.2,0.1,0.3,0.2C234,180.6,234,180.7,234,180.9z"></path> <path class="st7" d="M219.3,180.2h-12.5c-0.3,0-0.6,0.3-0.6,0.6l0,0v1.7l0,0c0,0.3,0.3,0.6,0.6,0.6h9.2l0,0h0.3l0,0h2.2l0,0h0.3 l0,0h2.2C219.9,182.3,219.5,181.1,219.3,180.2z"></path> <rect x="230.5" y="180.2" class="st7" width="0.3" height="2.9"></rect> <rect x="229.5" y="180.2" class="st7" width="0.3" height="2.9"></rect> <rect x="228.3" y="180.2" class="st7" width="0.3" height="2.9"></rect> <rect x="226.4" y="180.2" class="st7" width="0.3" height="2.9"></rect> <rect x="224.4" y="180.2" class="st7" width="0.3" height="2.9"></rect> <rect x="221.4" y="180.2" class="st7" width="0.3" height="2.9"></rect> <rect x="231.5" y="180.2" class="st7" width="0.3" height="2.9"></rect> <rect x="232.1" y="180.2" class="st7" width="0.3" height="2.9"></rect> <rect x="232.7" y="180.2" class="st7" width="0.3" height="2.9"></rect> <path class="st7" d="M233.2,180.2v2.9h0.2h0.1v-2.9h-0.1H233.2z"></path> <path class="st7" d="M233.6,180.3v2.9c0.1,0,0.2-0.1,0.3-0.2v-2.4C233.9,180.4,233.7,180.3,233.6,180.3z"></path> <path class="st6" d="M234,177.9v1.7c0,0.1,0,0.3-0.1,0.4c-0.1,0.1-0.2,0.2-0.3,0.2h-0.1h-0.1h-26.5c-0.3,0-0.6-0.3-0.6-0.6l0,0 v-1.7l0,0c0-0.3,0.3-0.6,0.6-0.6h26.5h0.1h0.1c0.1,0,0.2,0.1,0.3,0.2C234,177.6,234,177.8,234,177.9z"></path> <path class="st7" d="M219.3,177.3h-12.5c-0.3,0-0.6,0.3-0.6,0.6l0,0v1.7l0,0c0,0.3,0.3,0.6,0.6,0.6h9.2l0,0h0.3l0,0h2.2l0,0h0.3 l0,0h2.2C219.9,179.3,219.5,178.1,219.3,177.3z"></path> <rect x="230.5" y="177.3" class="st7" width="0.3" height="2.9"></rect> <rect x="229.5" y="177.3" class="st7" width="0.3" height="2.9"></rect> <rect x="228.3" y="177.3" class="st7" width="0.3" height="2.9"></rect> <rect x="226.4" y="177.3" class="st7" width="0.3" height="2.9"></rect> <rect x="224.4" y="177.3" class="st7" width="0.3" height="2.9"></rect> <rect x="221.4" y="177.3" class="st7" width="0.3" height="2.9"></rect> <rect x="231.5" y="177.3" class="st7" width="0.3" height="2.9"></rect> <rect x="232.1" y="177.3" class="st7" width="0.3" height="2.9"></rect> <rect x="232.7" y="177.3" class="st7" width="0.3" height="2.9"></rect> <path class="st7" d="M233.2,177.3v2.9h0.2h0.1v-2.9h-0.1H233.2z"></path> <path class="st7" d="M233.6,177.3v2.9c0.1,0,0.2-0.1,0.3-0.2v-2.4C233.9,177.4,233.7,177.4,233.6,177.3z"></path> <path class="st6" d="M232.4,174.9v1.7c0,0.1,0,0.3-0.1,0.4c-0.1,0.1-0.2,0.2-0.3,0.2h-0.1h-0.1h-26.5c-0.3,0-0.6-0.3-0.6-0.6l0,0 v-1.7l0,0c0-0.3,0.3-0.6,0.6-0.6h26.5h0.1h0.1c0.1,0,0.2,0.1,0.3,0.2C232.4,174.7,232.4,174.8,232.4,174.9z"></path> <path class="st7" d="M217.7,174.3h-12.5c-0.3,0-0.6,0.3-0.6,0.6l0,0v1.7l0,0c0,0.3,0.3,0.6,0.6,0.6h9.2l0,0h0.3l0,0h2.2l0,0h0.3 l0,0h2.2C218.3,176.4,217.9,175.2,217.7,174.3z"></path> <rect x="228.9" y="174.3" class="st7" width="0.3" height="2.9"></rect> <rect x="227.9" y="174.3" class="st7" width="0.3" height="2.9"></rect> <rect x="226.6" y="174.3" class="st7" width="0.3" height="2.9"></rect> <rect x="224.8" y="174.3" class="st7" width="0.3" height="2.9"></rect> <rect x="222.8" y="174.3" class="st7" width="0.3" height="2.9"></rect> <rect x="219.7" y="174.3" class="st7" width="0.3" height="2.9"></rect> <rect x="229.9" y="174.3" class="st7" width="0.3" height="2.9"></rect> <rect x="230.5" y="174.3" class="st7" width="0.3" height="2.9"></rect> <rect x="231.1" y="174.3" class="st7" width="0.3" height="2.9"></rect> <path class="st7" d="M231.6,174.3v2.9h0.2h0.1v-2.9h-0.1H231.6z"></path> <path class="st7" d="M232,174.3v2.9c0.1,0,0.2-0.1,0.3-0.2v-2.4C232.2,174.5,232.1,174.4,232,174.3z"></path> <path class="st6" d="M233.3,172v1.7c0,0.1,0,0.3-0.1,0.4c-0.1,0.1-0.2,0.2-0.3,0.2h-0.1h-0.1h-26.5c-0.3,0-0.6-0.3-0.6-0.6l0,0V172 l0,0c0-0.3,0.3-0.6,0.6-0.6h26.5h0.1h0.1c0.1,0,0.2,0.1,0.3,0.2C233.3,171.7,233.3,171.8,233.3,172z"></path> <path class="st7" d="M218.5,171.3H206c-0.3,0-0.6,0.3-0.6,0.6l0,0v1.7l0,0c0,0.3,0.3,0.6,0.6,0.6h9.2l0,0h0.3l0,0h2.2l0,0h0.3l0,0 h2.2C219.2,173.4,218.7,172.2,218.5,171.3z"></path> <rect x="229.8" y="171.3" class="st7" width="0.3" height="2.9"></rect> <rect x="228.8" y="171.3" class="st7" width="0.3" height="2.9"></rect> <rect x="227.5" y="171.3" class="st7" width="0.3" height="2.9"></rect> <rect x="225.7" y="171.3" class="st7" width="0.3" height="2.9"></rect> <rect x="223.7" y="171.3" class="st7" width="0.3" height="2.9"></rect> <rect x="220.6" y="171.3" class="st7" width="0.3" height="2.9"></rect> <rect x="230.7" y="171.3" class="st7" width="0.3" height="2.9"></rect> <rect x="231.4" y="171.3" class="st7" width="0.3" height="2.9"></rect> <rect x="232" y="171.3" class="st7" width="0.3" height="2.9"></rect> <path class="st7" d="M232.5,171.3v2.9h0.2h0.1v-2.9h-0.1H232.5z"></path> <path class="st7" d="M232.9,171.4v2.9c0.1,0,0.2-0.1,0.3-0.2v-2.4C233.1,171.5,233,171.4,232.9,171.4z"></path> </g> <g> <polygon class="st5" points="174.6,93.9 159.6,121.7 122.5,101.7 122.5,101.7 106.8,93.3 121.8,65.4 151,81.2 "></polygon> <g> <path class="st0" d="M169.9,95.4L158.2,117l-47.4-25.6l11.7-21.6L169.9,95.4z M159,114l8.8-16.3c0.6-1.1,0.2-2.5-0.9-3.1 l-42.1-22.7c-1.1-0.6-2.5-0.2-3.1,0.9L112.9,89c-0.6,1.1-0.2,2.5,0.9,3.1l42.1,22.7C157,115.5,158.4,115.1,159,114z"></path> </g> <ellipse class="st0" cx="140.4" cy="93.4" rx="6.6" ry="6.6"></ellipse> </g> <g> <polygon class="st5" points="181,115.6 149.4,117.9 146.4,75.8 146.4,75.8 145.1,58.1 176.7,55.8 179,88.9 "></polygon> <g> <path class="st0" d="M177.2,112.4l-24.5,1.8l-3.9-53.7l24.5-1.8L177.2,112.4z M155.7,113.2l18.5-1.3c1.3-0.1,2.2-1.2,2.1-2.4 l-3.4-47.7c-0.1-1.3-1.2-2.2-2.5-2.1L151.9,61c-1.3,0.1-2.2,1.2-2.1,2.5l3.4,47.7C153.3,112.4,154.4,113.3,155.7,113.2z"></path> </g> <ellipse transform="matrix(0.6544 -0.7562 0.7562 0.6544 -9.0119 153.1137)" class="st0" cx="163" cy="86.4" rx="6.6" ry="6.6"></ellipse> </g> <g> <path class="st6" d="M119.3,137.8c0,0,3,5.1,5.8,5.2c2.8,0.1,7-2.4,7-2.4s2.5-6.8,0.8-9.5c0,0-1.7-0.9-3.5,0.7 c-0.3,0.3-0.6,0.6-0.9,1.1c-0.4,0.6-0.9,1-1.5,1.2c-2,0.7-4.3-1-5.2,0.7c-0.5,1-1.1,1.7-1.5,2.2 C119.7,137.6,119.3,137.8,119.3,137.8z"></path> <path class="st6" d="M162.6,212.6c0,0,7.4-65-33.8-69.6c0,0-32,7.6-24,69.6H162.6z"></path> <path class="st4" d="M134.1,144c0,0-7.7,2.1-10.1,0.8c0,0-0.4-3.9,2.9-3.3c2.2,0.4,3.7-0.9,4.5-1.4 C132.6,139.3,134.4,142.4,134.1,144z"></path> <path class="st4" d="M127.4,138.1c0.5,0.4,2-6.3,2-6.3c-0.3,0.3-0.6,0.6-0.9,1.1c-0.4,0.6-0.9,1-1.5,1.2 C127,134.3,126.9,137.7,127.4,138.1z"></path> <path class="st4" d="M120.3,137c0.1,0.1,3.7,2.6,4.2,2.6s-2.6-4.8-2.6-4.8C121.3,135.8,120.7,136.5,120.3,137z"></path> </g> <g> <g> <path class="st6" d="M158.6,209.7v2.1c0,0.2-0.1,0.3-0.2,0.4c-0.1,0.1-0.3,0.2-0.4,0.3c-0.1,0-0.1,0-0.2,0c-0.1,0-0.1,0-0.2,0H118 c-0.5,0-0.9-0.3-1-0.8l0,0v-2.1l0,0c0-0.4,0.4-0.8,1-0.8h39.6c0.1,0,0.1,0,0.2,0c0.1,0,0.1,0,0.2,0c0.2,0.1,0.3,0.2,0.4,0.3 C158.5,209.4,158.6,209.6,158.6,209.7z"></path> <path class="st8" d="M139.1,212.6h-21.2c-0.5,0-0.8-0.3-0.9-0.8l0,0v-2.1l0,0c0-0.4,0.4-0.8,0.9-0.8h18.6 C136.8,210,137.5,211.5,139.1,212.6z"></path> <g> <rect x="153.3" y="208.9" class="st8" width="0.4" height="3.7"></rect> <rect x="151.8" y="208.9" class="st8" width="0.4" height="3.7"></rect> <rect x="150" y="208.9" class="st8" width="0.4" height="3.7"></rect> <rect x="147.2" y="208.9" class="st8" width="0.4" height="3.7"></rect> <rect x="144.2" y="208.9" class="st8" width="0.4" height="3.7"></rect> <rect x="139.7" y="208.9" class="st8" width="0.4" height="3.7"></rect> <rect x="135.4" y="208.9" class="st8" width="0.4" height="3.7"></rect> <rect x="131.6" y="208.9" class="st8" width="0.4" height="3.7"></rect> <rect x="154.8" y="208.9" class="st8" width="0.4" height="3.7"></rect> <rect x="155.7" y="208.9" class="st8" width="0.4" height="3.7"></rect> <rect x="156.6" y="208.9" class="st8" width="0.4" height="3.7"></rect> <path class="st8" d="M157.8,209v3.7c-0.1,0-0.1,0-0.2,0h-0.3V209h0.3C157.7,208.9,157.7,208.9,157.8,209z"></path> <path class="st8" d="M158.4,209.3v3c-0.1,0.1-0.3,0.2-0.4,0.3V209C158.1,209.1,158.3,209.2,158.4,209.3z"></path> </g> </g> <g> <path class="st6" d="M154.3,206.1v2.1c0,0.2-0.1,0.3-0.2,0.4c-0.1,0.1-0.3,0.2-0.4,0.3c-0.1,0-0.1,0-0.2,0c-0.1,0-0.1,0-0.2,0 h-39.6c-0.5,0-0.9-0.3-1-0.8l0,0V206l0,0c0-0.4,0.4-0.8,1-0.8h39.6h0.1l0,0l0,0l0,0c0.1,0,0.1,0,0.2,0l0,0l0,0l0,0l0,0l0,0l0,0 l0,0l0,0l0,0l0,0c0,0,0,0,0.1,0.1l0,0l0,0l0,0C154.3,205.7,154.3,205.9,154.3,206.1z"></path> <path class="st8" d="M134.9,208.9h-21.2c-0.5,0-0.8-0.3-0.9-0.8l0,0V206l0,0c0-0.4,0.4-0.8,0.9-0.8h18.6v0.1 C132.6,206.4,133.3,207.9,134.9,208.9z"></path> <g> <rect x="149.1" y="205.2" class="st8" width="0.4" height="3.7"></rect> <rect x="147.5" y="205.2" class="st8" width="0.4" height="3.7"></rect> <rect x="145.7" y="205.2" class="st8" width="0.4" height="3.7"></rect> <rect x="142.9" y="205.2" class="st8" width="0.4" height="3.7"></rect> <rect x="140" y="205.2" class="st8" width="0.4" height="3.7"></rect> <rect x="135.4" y="205.2" class="st8" width="0.4" height="3.7"></rect> <rect x="131.2" y="205.2" class="st8" width="0.4" height="3.7"></rect> <rect x="127.4" y="205.2" class="st8" width="0.4" height="3.7"></rect> <rect x="150.5" y="205.2" class="st8" width="0.4" height="3.7"></rect> <rect x="151.5" y="205.2" class="st8" width="0.4" height="3.7"></rect> <rect x="152.4" y="205.2" class="st8" width="0.4" height="3.7"></rect> <path class="st8" d="M153.5,205.3v3.7c-0.1,0-0.1,0-0.2,0H153v-3.7h0.3C153.4,205.2,153.5,205.3,153.5,205.3z"></path> <path class="st8" d="M154.2,205.6v3c-0.1,0.1-0.3,0.2-0.4,0.3v-3.6C153.9,205.4,154.1,205.5,154.2,205.6z"></path> </g> </g> <g> <path class="st6" d="M156.4,202.4v2.1c0,0.2-0.1,0.3-0.2,0.4c-0.1,0.1-0.3,0.2-0.4,0.3c-0.1,0-0.1,0-0.2,0c-0.1,0-0.1,0-0.2,0 h-39.6c-0.2,0-0.3,0-0.4-0.1c-0.3-0.1-0.5-0.4-0.5-0.6l0,0l0,0v-2.1l0,0c0-0.4,0.4-0.8,1-0.8h39.6c0.1,0,0.1,0,0.2,0 c0.1,0,0.1,0,0.2,0c0.2,0.1,0.3,0.2,0.4,0.3C156.3,202.1,156.4,202.3,156.4,202.4z"></path> <path class="st8" d="M137,205.3h-21.2c-0.1,0-0.3,0-0.4-0.1c-0.3-0.1-0.4-0.4-0.5-0.6l0,0l0,0v-2.1l0,0c0-0.4,0.4-0.8,0.9-0.8 h18.6C134.7,202.8,135.4,204.2,137,205.3C136.9,205.3,136.9,205.3,137,205.3z"></path> <g> <rect x="151.1" y="201.6" class="st8" width="0.4" height="3.7"></rect> <rect x="149.6" y="201.6" class="st8" width="0.4" height="3.7"></rect> <rect x="147.8" y="201.6" class="st8" width="0.4" height="3.7"></rect> <rect x="145" y="201.6" class="st8" width="0.4" height="3.7"></rect> <rect x="142" y="201.6" class="st8" width="0.4" height="3.7"></rect> <rect x="137.5" y="201.6" class="st8" width="0.4" height="3.7"></rect> <rect x="133.2" y="201.6" class="st8" width="0.4" height="3.7"></rect> <rect x="129.4" y="201.6" class="st8" width="0.4" height="3.7"></rect> <rect x="152.6" y="201.6" class="st8" width="0.4" height="3.7"></rect> <rect x="153.5" y="201.6" class="st8" width="0.4" height="3.7"></rect> <rect x="154.4" y="201.6" class="st8" width="0.4" height="3.7"></rect> <path class="st8" d="M155.6,201.7v3.7c-0.1,0-0.1,0-0.2,0h-0.3v-3.7h0.3C155.5,201.6,155.5,201.6,155.6,201.7z"></path> <path class="st8" d="M156.2,202v3c-0.1,0.1-0.3,0.2-0.4,0.3v-3.6C156,201.8,156.1,201.9,156.2,202z"></path> </g> </g> <g> <path class="st6" d="M157.3,198.8v2.1c0,0.2-0.1,0.3-0.2,0.4c-0.1,0.1-0.3,0.2-0.4,0.3c-0.1,0-0.1,0-0.2,0c-0.1,0-0.1,0-0.2,0 h-39.6c-0.5,0-0.9-0.3-1-0.8l0,0v-2.1l0,0c0-0.4,0.4-0.7,0.8-0.8h0.1h39.6c0.1,0,0.1,0,0.2,0c0.1,0,0.1,0,0.2,0 c0.2,0.1,0.3,0.2,0.4,0.3C157.3,198.4,157.3,198.6,157.3,198.8z"></path> <path class="st8" d="M137.9,201.6h-21.2c-0.5,0-0.8-0.3-0.9-0.8l0,0v-2.1l0,0c0-0.4,0.3-0.7,0.8-0.8h0.1h18.6l0,0 C135.6,199,136.3,200.5,137.9,201.6z"></path> <g> <rect x="152.1" y="198" class="st8" width="0.4" height="3.7"></rect> <rect x="150.5" y="198" class="st8" width="0.4" height="3.7"></rect> <rect x="148.7" y="198" class="st8" width="0.4" height="3.7"></rect> <rect x="145.9" y="198" class="st8" width="0.4" height="3.7"></rect> <rect x="143" y="198" class="st8" width="0.4" height="3.7"></rect> <rect x="138.4" y="198" class="st8" width="0.4" height="3.7"></rect> <rect x="134.2" y="198" class="st8" width="0.4" height="3.7"></rect> <rect x="130.4" y="198" class="st8" width="0.4" height="3.7"></rect> <rect x="153.5" y="198" class="st8" width="0.4" height="3.7"></rect> <rect x="154.5" y="198" class="st8" width="0.4" height="3.7"></rect> <rect x="155.4" y="198" class="st8" width="0.4" height="3.7"></rect> <path class="st8" d="M156.5,198v3.7c-0.1,0-0.1,0-0.2,0H156V198h0.3C156.4,198,156.5,198,156.5,198z"></path> <path class="st8" d="M157.2,198.3v3c-0.1,0.1-0.3,0.2-0.4,0.3V198C156.9,198.1,157.1,198.2,157.2,198.3z"></path> </g> </g> <g> <path class="st6" d="M154.4,195.1v2.1c0,0.2-0.1,0.3-0.2,0.4c-0.1,0.1-0.3,0.2-0.4,0.3c-0.1,0-0.1,0-0.2,0c0,0,0,0-0.1,0l0,0l0,0 c0,0,0,0-0.1,0h-39.6c-0.5,0-0.9-0.3-1-0.8l0,0V195l0,0l0,0c0-0.3,0.3-0.6,0.7-0.7l0,0c0.1,0,0.1,0,0.2,0h39.6h0.1l0,0l0,0l0,0 c0.1,0,0.1,0,0.2,0c0.2,0.1,0.3,0.2,0.4,0.3C154.4,194.7,154.4,194.9,154.4,195.1z"></path> <path class="st8" d="M135,198h-21.2c-0.5,0-0.8-0.3-0.9-0.8l0,0v-2.1l0,0l0,0c0-0.3,0.3-0.6,0.7-0.7l0,0c0,0,0.1,0,0.2,0h18.6l0,0 C132.7,195.4,133.4,196.9,135,198L135,198z"></path> <g> <rect x="149.2" y="194.3" class="st8" width="0.4" height="3.7"></rect> <rect x="147.6" y="194.3" class="st8" width="0.4" height="3.7"></rect> <rect x="145.8" y="194.3" class="st8" width="0.4" height="3.7"></rect> <rect x="143" y="194.3" class="st8" width="0.4" height="3.7"></rect> <rect x="140.1" y="194.3" class="st8" width="0.4" height="3.7"></rect> <rect x="135.5" y="194.3" class="st8" width="0.4" height="3.7"></rect> <rect x="131.3" y="194.3" class="st8" width="0.4" height="3.7"></rect> <rect x="127.5" y="194.3" class="st8" width="0.4" height="3.7"></rect> <rect x="150.6" y="194.3" class="st8" width="0.4" height="3.7"></rect> <rect x="151.6" y="194.3" class="st8" width="0.4" height="3.7"></rect> <rect x="152.5" y="194.3" class="st8" width="0.4" height="3.7"></rect> <path class="st8" d="M153.6,194.3v3.7c-0.1,0-0.1,0-0.2,0h-0.3v-3.7h0.3C153.5,194.3,153.6,194.3,153.6,194.3z"></path> <path class="st8" d="M154.3,194.6v3c-0.1,0.1-0.3,0.2-0.4,0.3v-3.6C154,194.4,154.1,194.5,154.3,194.6z"></path> </g> </g> <g> <path class="st6" d="M154.3,191.4v2.1c0,0.2-0.1,0.3-0.2,0.4c-0.1,0.1-0.3,0.2-0.4,0.3h-0.1l0,0l0,0c-0.1,0-0.1,0-0.2,0h-39.6 h-0.1l0,0c-0.4-0.1-0.8-0.4-0.8-0.7l0,0v-2.1l0,0c0-0.4,0.4-0.8,1-0.8h39.6h0.1l0,0l0,0l0,0c0.1,0,0.1,0,0.2,0l0,0l0,0l0,0 c0,0,0,0,0.1,0l0,0l0,0l0,0l0,0l0,0c0,0,0,0,0.1,0.1l0,0l0,0l0,0C154.3,191.1,154.3,191.2,154.3,191.4z"></path> <path class="st8" d="M134.9,194.3h-21.2c0,0,0,0-0.1,0c0,0,0,0-0.1,0c-0.4,0-0.7-0.4-0.7-0.8l0,0v-2.1l0,0c0-0.4,0.4-0.8,0.9-0.8 h18.6v0.1C132.6,191.8,133.3,193.2,134.9,194.3L134.9,194.3z"></path> <g> <rect x="149.1" y="190.6" class="st8" width="0.4" height="3.7"></rect> <rect x="147.5" y="190.6" class="st8" width="0.4" height="3.7"></rect> <rect x="145.7" y="190.6" class="st8" width="0.4" height="3.7"></rect> <rect x="142.9" y="190.6" class="st8" width="0.4" height="3.7"></rect> <rect x="140" y="190.6" class="st8" width="0.4" height="3.7"></rect> <rect x="135.4" y="190.6" class="st8" width="0.4" height="3.7"></rect> <rect x="131.2" y="190.6" class="st8" width="0.4" height="3.7"></rect> <rect x="127.4" y="190.6" class="st8" width="0.4" height="3.7"></rect> <rect x="150.5" y="190.6" class="st8" width="0.4" height="3.7"></rect> <rect x="151.5" y="190.6" class="st8" width="0.4" height="3.7"></rect> <rect x="152.4" y="190.6" class="st8" width="0.4" height="3.7"></rect> <path class="st8" d="M153.5,190.6v3.7c-0.1,0-0.1,0-0.2,0H153v-3.7h0.3C153.4,190.6,153.5,190.6,153.5,190.6z"></path> <path class="st8" d="M154.2,191v3c-0.1,0.1-0.3,0.2-0.4,0.3v-3.6C153.9,190.7,154.1,190.8,154.2,191z"></path> </g> </g> <g> <path class="st6" d="M156.4,187.8v2.1c0,0.2-0.1,0.3-0.2,0.4c-0.1,0.1-0.3,0.2-0.4,0.3c-0.1,0-0.1,0-0.2,0c-0.1,0-0.1,0-0.2,0 h-39.6c-0.2,0-0.3,0-0.4-0.1c-0.3-0.1-0.5-0.4-0.5-0.6l0,0l0,0v-2.1l0,0c0-0.4,0.4-0.8,1-0.8h39.6c0.1,0,0.1,0,0.2,0 c0.1,0,0.1,0,0.2,0c0.2,0.1,0.3,0.2,0.4,0.3C156.3,187.5,156.4,187.6,156.4,187.8z"></path> <path class="st8" d="M137,190.7h-21.2c-0.1,0-0.3,0-0.4-0.1c-0.3-0.1-0.4-0.4-0.5-0.6l0,0l0,0v-2.1l0,0c0-0.4,0.4-0.8,0.9-0.8 h18.6C134.7,188.2,135.4,189.6,137,190.7C136.9,190.6,136.9,190.7,137,190.7z"></path> <g> <rect x="151.1" y="187" class="st8" width="0.4" height="3.7"></rect> <rect x="149.6" y="187" class="st8" width="0.4" height="3.7"></rect> <rect x="147.8" y="187" class="st8" width="0.4" height="3.7"></rect> <rect x="145" y="187" class="st8" width="0.4" height="3.7"></rect> <rect x="142" y="187" class="st8" width="0.4" height="3.7"></rect> <rect x="137.5" y="187" class="st8" width="0.4" height="3.7"></rect> <rect x="133.2" y="187" class="st8" width="0.4" height="3.7"></rect> <rect x="129.4" y="187" class="st8" width="0.4" height="3.7"></rect> <rect x="152.6" y="187" class="st8" width="0.4" height="3.7"></rect> <rect x="153.5" y="187" class="st8" width="0.4" height="3.7"></rect> <rect x="154.4" y="187" class="st8" width="0.4" height="3.7"></rect> <path class="st8" d="M155.6,187v3.7c-0.1,0-0.1,0-0.2,0h-0.3V187h0.3C155.5,187,155.5,187,155.6,187z"></path> <path class="st8" d="M156.2,187.3v3c-0.1,0.1-0.3,0.2-0.4,0.3V187C156,187.1,156.1,187.2,156.2,187.3z"></path> </g> </g> <g> <path class="st6" d="M159.6,184.1v2.1c0,0.2-0.1,0.3-0.2,0.4c-0.1,0.1-0.3,0.2-0.4,0.3c-0.1,0-0.1,0-0.2,0c-0.1,0-0.1,0-0.2,0H119 c-0.5,0-0.9-0.3-1-0.8l0,0V184l0,0c0-0.4,0.4-0.7,0.8-0.8h0.1h39.6c0.1,0,0.1,0,0.2,0c0.1,0,0.1,0,0.2,0c0.2,0.1,0.3,0.2,0.4,0.3 C159.6,183.8,159.6,183.9,159.6,184.1z"></path> <path class="st8" d="M140.2,187H119c-0.5,0-0.8-0.3-0.9-0.8l0,0v-2.1l0,0c0-0.4,0.3-0.7,0.8-0.8h0.1h18.6l0,0 C137.9,184.4,138.6,185.9,140.2,187z"></path> <g> <rect x="154.3" y="183.3" class="st8" width="0.4" height="3.7"></rect> <rect x="152.8" y="183.3" class="st8" width="0.4" height="3.7"></rect> <rect x="151" y="183.3" class="st8" width="0.4" height="3.7"></rect> <rect x="148.2" y="183.3" class="st8" width="0.4" height="3.7"></rect> <rect x="145.2" y="183.3" class="st8" width="0.4" height="3.7"></rect> <rect x="140.7" y="183.3" class="st8" width="0.4" height="3.7"></rect> <rect x="136.5" y="183.3" class="st8" width="0.4" height="3.7"></rect> <rect x="132.7" y="183.3" class="st8" width="0.4" height="3.7"></rect> <rect x="155.8" y="183.3" class="st8" width="0.4" height="3.7"></rect> <rect x="156.8" y="183.3" class="st8" width="0.4" height="3.7"></rect> <rect x="157.7" y="183.3" class="st8" width="0.4" height="3.7"></rect> <path class="st8" d="M158.8,183.3v3.7c-0.1,0-0.1,0-0.2,0h-0.3v-3.7h0.3C158.7,183.3,158.8,183.3,158.8,183.3z"></path> <path class="st8" d="M159.4,183.7v3c-0.1,0.1-0.3,0.2-0.4,0.3v-3.6C159.2,183.4,159.3,183.5,159.4,183.7z"></path> </g> </g> <g> <path class="st6" d="M154.4,180.4v2.1c0,0.2-0.1,0.3-0.2,0.4c-0.1,0.1-0.3,0.2-0.4,0.3c-0.1,0-0.1,0-0.2,0c0,0,0,0-0.1,0l0,0l0,0 l0,0h-39.6c-0.5,0-0.9-0.3-1-0.8l0,0v-2.1l0,0c0-0.4,0.4-0.8,1-0.8h39.6c0,0,0,0,0.1,0h0.1c0.1,0,0.1,0,0.2,0h0.1l0,0l0,0l0,0l0,0 l0,0c0,0,0.1,0,0.1,0.1l0,0l0,0l0,0l0,0l0,0l0,0C154.4,180.1,154.4,180.2,154.4,180.4z"></path> <path class="st8" d="M135,183.3h-21.2c-0.5,0-0.8-0.3-0.9-0.8l0,0v-2.1l0,0c0-0.4,0.4-0.8,0.9-0.8h18.6v0.1 C132.7,180.8,133.4,182.2,135,183.3L135,183.3z"></path> <g> <rect x="149.2" y="179.6" class="st8" width="0.4" height="3.7"></rect> <rect x="147.6" y="179.6" class="st8" width="0.4" height="3.7"></rect> <rect x="145.8" y="179.6" class="st8" width="0.4" height="3.7"></rect> <rect x="143" y="179.6" class="st8" width="0.4" height="3.7"></rect> <rect x="140.1" y="179.6" class="st8" width="0.4" height="3.7"></rect> <rect x="135.5" y="179.6" class="st8" width="0.4" height="3.7"></rect> <rect x="131.3" y="179.6" class="st8" width="0.4" height="3.7"></rect> <rect x="127.5" y="179.6" class="st8" width="0.4" height="3.7"></rect> <rect x="150.6" y="179.6" class="st8" width="0.4" height="3.7"></rect> <rect x="151.6" y="179.6" class="st8" width="0.4" height="3.7"></rect> <rect x="152.5" y="179.6" class="st8" width="0.4" height="3.7"></rect> <path class="st8" d="M153.6,179.6v3.7c-0.1,0-0.1,0-0.2,0h-0.3v-3.7h0.3C153.5,179.6,153.6,179.6,153.6,179.6z"></path> <path class="st8" d="M154.3,180v3c-0.1,0.1-0.3,0.2-0.4,0.3v-3.6C154,179.7,154.1,179.8,154.3,180z"></path> </g> </g> <g> <path class="st6" d="M157.3,176.8v2.1c0,0.2-0.1,0.3-0.2,0.4c-0.1,0.1-0.3,0.2-0.4,0.3c-0.1,0-0.1,0-0.2,0c-0.1,0-0.1,0-0.2,0 h-39.6c-0.2,0-0.3,0-0.4-0.1c-0.3-0.1-0.5-0.4-0.5-0.6l0,0l0,0v-2.1l0,0c0-0.4,0.4-0.7,0.8-0.8h0.1h39.6c0.1,0,0.1,0,0.2,0 c0.1,0,0.1,0,0.2,0c0.2,0.1,0.3,0.2,0.4,0.3C157.3,176.5,157.3,176.6,157.3,176.8z"></path> <path class="st8" d="M137.9,179.7h-21.2c-0.1,0-0.3,0-0.4-0.1c-0.3-0.1-0.4-0.4-0.5-0.6l0,0l0,0v-2.1l0,0c0-0.4,0.3-0.7,0.8-0.8 h0.1h18.6l0,0C135.6,177.2,136.3,178.6,137.9,179.7C137.8,179.6,137.9,179.7,137.9,179.7z"></path> <g> <rect x="152.1" y="176" class="st8" width="0.4" height="3.7"></rect> <rect x="150.5" y="176" class="st8" width="0.4" height="3.7"></rect> <rect x="148.7" y="176" class="st8" width="0.4" height="3.7"></rect> <rect x="145.9" y="176" class="st8" width="0.4" height="3.7"></rect> <rect x="143" y="176" class="st8" width="0.4" height="3.7"></rect> <rect x="138.4" y="176" class="st8" width="0.4" height="3.7"></rect> <rect x="134.2" y="176" class="st8" width="0.4" height="3.7"></rect> <rect x="130.4" y="176" class="st8" width="0.4" height="3.7"></rect> <rect x="153.5" y="176" class="st8" width="0.4" height="3.7"></rect> <rect x="154.5" y="176" class="st8" width="0.4" height="3.7"></rect> <rect x="155.4" y="176" class="st8" width="0.4" height="3.7"></rect> <path class="st8" d="M156.5,176v3.7c-0.1,0-0.1,0-0.2,0H156V176h0.3C156.4,176,156.5,176,156.5,176z"></path> <path class="st8" d="M157.2,176.4v3c-0.1,0.1-0.3,0.2-0.4,0.3v-3.6C156.9,176.1,157.1,176.2,157.2,176.4z"></path> </g> </g> <g> <path class="st6" d="M158.6,173.1v2.1c0,0.2-0.1,0.3-0.2,0.4c-0.1,0.1-0.3,0.2-0.4,0.3c-0.1,0-0.1,0-0.2,0c0,0,0,0-0.1,0l0,0l0,0 c0,0,0,0-0.1,0H118c-0.5,0-0.9-0.3-1-0.8l0,0V173l0,0c0-0.4,0.4-0.8,1-0.8h39.6c0.1,0,0.1,0,0.2,0c0.1,0,0.1,0,0.2,0 c0.2,0.1,0.3,0.2,0.4,0.3C158.5,172.8,158.6,173,158.6,173.1z"></path> <path class="st8" d="M139.1,176h-21.2c-0.5,0-0.8-0.3-0.9-0.8l0,0v-2.1l0,0c0-0.4,0.4-0.8,0.9-0.8h18.6 C136.8,173.4,137.5,174.9,139.1,176L139.1,176z"></path> <g> <rect x="153.3" y="172.3" class="st8" width="0.4" height="3.7"></rect> <rect x="151.8" y="172.3" class="st8" width="0.4" height="3.7"></rect> <rect x="150" y="172.3" class="st8" width="0.4" height="3.7"></rect> <rect x="147.2" y="172.3" class="st8" width="0.4" height="3.7"></rect> <rect x="144.2" y="172.3" class="st8" width="0.4" height="3.7"></rect> <rect x="139.7" y="172.3" class="st8" width="0.4" height="3.7"></rect> <rect x="135.4" y="172.3" class="st8" width="0.4" height="3.7"></rect> <rect x="131.6" y="172.3" class="st8" width="0.4" height="3.7"></rect> <rect x="154.8" y="172.3" class="st8" width="0.4" height="3.7"></rect> <rect x="155.7" y="172.3" class="st8" width="0.4" height="3.7"></rect> <rect x="156.6" y="172.3" class="st8" width="0.4" height="3.7"></rect> <path class="st8" d="M157.8,172.3v3.7c-0.1,0-0.1,0-0.2,0h-0.3v-3.7h0.3C157.7,172.3,157.7,172.3,157.8,172.3z"></path> <path class="st8" d="M158.4,172.7v3c-0.1,0.1-0.3,0.2-0.4,0.3v-3.6C158.1,172.4,158.3,172.5,158.4,172.7z"></path> </g> </g> </g> <g> <circle class="st9" cx="110" cy="193.8" r="18.8"></circle> <g> <path class="st10" d="M108.4,211.2c-4.6,0-8.9-1.8-12.1-5s-5-7.5-5-12.1s1.8-8.9,5-12.1c3.2-3.2,7.5-5,12.1-5s8.9,1.8,12.1,5 s5,7.5,5,12.1s-1.8,8.9-5,12.1C117.2,209.4,112.9,211.2,108.4,211.2z M108.4,178c-8.9,0-16.1,7.2-16.1,16.1 c0,8.9,7.2,16.1,16.1,16.1s16.1-7.2,16.1-16.1S117.2,178,108.4,178z"></path> </g> <g> <path class="st10" d="M110.7,199c0-0.4,0-0.7,0-1c-0.1-0.3-0.2-0.6-0.4-0.8c-0.2-0.3-0.5-0.5-0.8-0.7c-0.4-0.2-0.8-0.5-1.3-0.7 c-0.9-0.4-1.7-0.9-2.4-1.3c-0.7-0.4-1.3-0.9-1.8-1.5c-0.5-0.5-0.8-1.1-1.1-1.8c-0.2-0.7-0.3-1.4-0.2-2.3c0.1-0.7,0.3-1.4,0.6-2 c0.3-0.6,0.8-1.1,1.3-1.5s1.2-0.7,1.9-0.9c0.7-0.2,1.5-0.3,2.4-0.3l0.3-2.8l2.3,0.3l-0.3,2.9c0.8,0.2,1.5,0.5,2.1,0.9 s1.1,0.9,1.5,1.5s0.7,1.2,0.9,2c0.2,0.7,0.2,1.5,0.1,2.4l-4.1-0.5c0.1-1.1,0-1.9-0.4-2.5s-1-0.9-1.8-1c-0.4-0.1-0.8,0-1.1,0 c-0.3,0.1-0.6,0.2-0.8,0.4c-0.2,0.2-0.4,0.4-0.5,0.7s-0.2,0.6-0.3,0.9c0,0.3,0,0.6,0,0.9c0.1,0.3,0.2,0.5,0.4,0.8 c0.2,0.3,0.5,0.5,0.8,0.7c0.4,0.2,0.8,0.5,1.4,0.8c0.9,0.5,1.7,0.9,2.4,1.4c0.7,0.5,1.3,0.9,1.8,1.5c0.5,0.5,0.8,1.1,1.1,1.8 c0.2,0.7,0.3,1.4,0.2,2.3c-0.1,0.8-0.3,1.5-0.7,2c-0.3,0.6-0.8,1.1-1.3,1.5s-1.2,0.7-1.9,0.9c-0.7,0.2-1.5,0.3-2.4,0.3l-0.3,2.6 l-2.3-0.3l0.3-2.6c-0.8-0.2-1.5-0.4-2.2-0.8c-0.7-0.4-1.3-0.8-1.8-1.4c-0.5-0.6-0.9-1.2-1.1-2c-0.3-0.8-0.3-1.7-0.2-2.8l4.1,0.5 c-0.1,0.6,0,1.2,0.1,1.6c0.1,0.4,0.3,0.8,0.6,1.1c0.3,0.3,0.6,0.5,0.9,0.6c0.4,0.1,0.7,0.2,1.1,0.3s0.8,0,1.2,0 c0.3-0.1,0.7-0.2,0.9-0.4c0.3-0.2,0.5-0.4,0.6-0.7C110.6,199.7,110.7,199.4,110.7,199z"></path> </g> </g> <g> <path class="st11" d="M210.9,92.9v116.4c0,1.8-1.5,3.3-3.3,3.3h-58.2c-1.8,0-3.3-1.5-3.3-3.3V92.9c0-1.8,1.5-3.3,3.3-3.3h58.2 C209.4,89.6,210.9,91.1,210.9,92.9z"></path> <g> <path class="st12" d="M188,94.2h-16.9c-0.4,0-0.7-0.3-0.7-0.7l0,0c0-0.4,0.3-0.7,0.7-0.7H188c0.4,0,0.7,0.3,0.7,0.7l0,0 C188.6,93.9,188.3,94.2,188,94.2z"></path> <path class="st12" d="M168.1,94.2L168.1,94.2c-0.4,0-0.7-0.3-0.7-0.7l0,0c0-0.4,0.3-0.7,0.7-0.7l0,0c0.4,0,0.7,0.3,0.7,0.7l0,0 C168.8,93.9,168.5,94.2,168.1,94.2z"></path> </g> <path class="st13" d="M183.5,205.8c0,1.2-0.5,2.2-1.2,3c-0.8,0.8-1.8,1.3-3,1.3c-2.3,0-4.2-1.9-4.2-4.2c0-1.5,0.8-2.8,2-3.6 c0.7-0.4,1.4-0.7,2.3-0.7C181.6,201.6,183.5,203.5,183.5,205.8z"></path> <rect x="149.9" y="97.2" class="st10" width="57.5" height="102.4"></rect> <path class="st14" d="M182.3,208.8c-0.8,0.8-1.8,1.3-3,1.3c-2.3,0-4.2-1.9-4.2-4.2c0-1.5,0.8-2.8,2-3.6 C177.4,204.1,178.7,207.1,182.3,208.8z"></path> </g> <g> <linearGradient id="SVGID_1_" gradientUnits="userSpaceOnUse" x1="223.3598" y1="124.7627" x2="234.9211" y2="124.7627" gradientTransform="matrix(1 0 0 -1 0 294)"> <stop offset="0" style="stop-color:#1269B2"></stop> <stop offset="1" style="stop-color:#0049AA"></stop> </linearGradient> <path class="st15" d="M234.8,167.6c-1.5,2.7-3.5,3.7-3.5,3.7h-8C223.4,171.3,236,165.6,234.8,167.6z"></path> <g> <path class="st16" d="M228.7,188.3c-0.2,0.2-0.2,0.5-0.1,0.8l0,0c0.2,0.5,0.8,1.1,1.6,1.7c0.1,0.1,0.2,0.1,0.3,0.2 c0,0,0,0,0.1,0.1l0,0c0.7,0.6,0.4,0.8,1.7,2.1c1.4,1.5,2.4,1.5,2.6,1.4c0.2-0.1-0.2-0.9-0.8-1.8l-0.1-0.1 c-0.1-0.1-0.1-0.2-0.2-0.3c-0.6-1-0.5-1.5-0.3-3.1c0.1-1.3,2-7.1,2-7.1l-2.7-0.5c0,0-0.8,4.6-1.7,5.3c-0.5,0.4-1,0.4-1.5,0.7 c0,0-0.1,0-0.1,0.1C229.2,187.9,228.9,188.1,228.7,188.3z"></path> <path class="st17" d="M228.7,188.3c-0.2,0.2-0.2,0.5-0.1,0.8l0,0c0.2,0.5,0.9,1.1,1.6,1.7c0.1,0.1,0.2,0.1,0.2,0.2 c0,0,0,0,0.1,0.1l0,0c0.7,0.6,0.4,0.8,1.7,2.1c1.4,1.5,2.4,1.5,2.6,1.4c0.2-0.1-0.2-0.9-0.8-1.8c-0.3-0.1-1.5-0.6-2.5-1.8 c-0.8-1.1-1.4-2.5-2-3.3c0,0-0.1,0-0.1,0.1C229.2,187.9,228.9,188.1,228.7,188.3z"></path> <path class="st16" d="M250.4,186.6c0.2,0.8,1.3,0.7,2.7,0.4c1.3-0.3,1,0.1,2.9-0.1c1.9-0.2,2.5-0.9,2.5-1.2 c0.1-0.2-0.9-0.3-1.9-0.5c-0.1,0-0.3,0-0.4,0c-1.1-0.1-1.9-0.9-3-1.5c-1-0.6-2.4-2.9-2.4-2.9l-2.6,0.2c0,0,1.4,2.1,1.9,2.9 c0.3,0.5,0.3,1.2,0.3,1.8C250.3,186,250.3,186.3,250.4,186.6z"></path> <path class="st17" d="M253,187c1.3-0.3,1,0.1,2.9-0.1c1.9-0.2,2.5-0.9,2.5-1.2c0.1-0.2-0.9-0.3-1.9-0.5l0,0c0,0-1.1,0.8-2.7,0.8 c-1.3,0-2.6-0.3-3.5-0.3c0,0.3,0,0.6,0,0.9C250.5,187.4,251.7,187.3,253,187z"></path> <linearGradient id="SVGID_00000057111256141307881190000001157564969282521019_" gradientUnits="userSpaceOnUse" x1="231.6259" y1="118.447" x2="240.4747" y2="118.447" gradientTransform="matrix(1 0 0 -1 0 294)"> <stop offset="0" style="stop-color:#1269B2"></stop> <stop offset="1" style="stop-color:#0049AA"></stop> </linearGradient> <path style="fill:url(#SVGID_00000057111256141307881190000001157564969282521019_);" d="M240.5,170.1l-2.4,6.5l-3.1,8.5 c0,0-0.9,0.1-1.7-0.2c-0.8-0.2-1.6-0.8-1.6-0.8s0.9-9.1,2.5-14.3c0.4-1.3,0.9-2.4,1.4-3C238.1,163.8,240.5,170.1,240.5,170.1z"></path> <linearGradient id="SVGID_00000072979361295408403160000015623692828361348013_" gradientUnits="userSpaceOnUse" x1="215.4032" y1="122.6739" x2="252.3" y2="122.6739" gradientTransform="matrix(1 0 0 -1 0 294)"> <stop offset="0" style="stop-color:#1269B2"></stop> <stop offset="1" style="stop-color:#0049AA"></stop> </linearGradient> <path style="fill:url(#SVGID_00000072979361295408403160000015623692828361348013_);" d="M218.5,164.1c0,0,16-5.4,19.5-4.3 c3.6,1.1,14.3,22.4,14.3,22.4s-0.2,0.3-0.9,0.6c-0.6,0.2-2.1,0.2-2.1,0.2s-9.7-8.3-10.8-10.7s-1.6-4.7-2.8-4.5 c-0.7,0.1-6.1,3.5-11,3.5c-1.9,0-7,0-7,0c-3-3.3-2.2-8.5-2.2-8.5L218.5,164.1z"></path> <path class="st17" d="M229.6,127.3c-0.7-0.4-1.5-0.6-2.1-0.6c0.2-0.1,0.5-0.2,0.5-0.2c-0.4-0.1-1.2,0.2-1.2,0.2 c-4.8-2.3-6.2,5-6.2,6.7s-0.2,3.7-2.8,5c-5.1,2.6-1.4,8.2-1.4,8.2l2,4c0-1.4,6.9-8.2,10.4-10.1c0.9-1.1,1.3-3.2,1.4-3.4 c-0.3,1.7-0.6,2.6-0.9,3.1C232.2,137.9,231.3,128.5,229.6,127.3z"></path> <path class="st16" d="M227.3,140.4c0,0-1.7,0.6-2.9,0.1c-1.1-0.5-1.9-2.3-1.9-2.3c0.5,0,1-0.5,1.5-3.3l0.2,0.1l3.5,1.3 c0,0-0.3,1.1-0.4,2.2C227.2,139.4,227.1,140.3,227.3,140.4z"></path> <path class="st20" d="M227.8,136.3c0,0-0.3,1.1-0.4,2.2c-2-0.4-2.8-2.4-3.1-3.5L227.8,136.3z"></path> <path class="st17" d="M223.4,134.1c0,0-1.1-1.7-1.3-3.2c-0.2-1,0.3-4.9,4.2-4.4c0,0,1.1,0.1,2.2,0.8c0.8,0.6,2.1,1.8,0.7,5.2 l-0.4,1.1L223.4,134.1z"></path> <path class="st16" d="M228.3,137.4c0,0-4.8-0.7-4.4-3.7c0.5-3,0.1-5.1,3.2-4.8c3.1,0.3,3.5,1.5,3.6,2.6 C230.9,132.5,229.6,137.5,228.3,137.4z"></path> <path class="st17" d="M229.3,129.2c0,0-1.9,3.3-4,3.5s-2.9-0.5-2.9-0.5s1.7-1,2.4-3.1C224.9,129.1,228.6,127.3,229.3,129.2z"></path> <path class="st17" d="M229,129.4c0,0,0.9,0.9,1,1.7s0,2.4,0.5,2.4c0,0,1.4-2.2,0.4-3.8C229.9,128.2,229,129.4,229,129.4z"></path> <path class="st17" d="M214.7,164.2c0.3,0.7,1.1,0.9,2.2,0.8c2.1-0.2,5.1-1.6,7.3-2.6c3.4-1.5,4.9-0.1,6-1s-1.2-3,0.8-12.6 c0.7-3.3-3.6-10.3-3.6-10.3s-0.3,2-4.4-0.4c-0.1-0.1-1.8,2.3-3.3,5.2c-1.7,3.2-3.4,7.2-2.9,9.2C217.7,156.4,214,162,214.7,164.2z"></path> <linearGradient id="SVGID_00000089569796338427505160000001061599699991890076_" gradientUnits="userSpaceOnUse" x1="231.6259" y1="116.542" x2="238.0636" y2="116.542" gradientTransform="matrix(1 0 0 -1 0 294)"> <stop offset="0" style="stop-color:#1269B2"></stop> <stop offset="1" style="stop-color:#0049AA"></stop> </linearGradient> <path style="fill:url(#SVGID_00000089569796338427505160000001061599699991890076_);" d="M238.1,176.6l-3.1,8.5 c0,0-0.9,0.1-1.7-0.2c-0.8-0.2-1.6-0.8-1.6-0.8s0.9-9.1,2.5-14.3L238.1,176.6z"></path> <path class="st17" d="M227.3,138.5c0,0,4.2,0.7,4.7,2.5s3.4,12.5,3.4,12.5s-2.1,0.4-3.1-0.6s-3.4-9.2-3.4-9.2L227.3,138.5z"></path> <path class="st17" d="M222.9,138.1c0,0-4,0.2-5.4,2.2c-1.9,2.7-5.8,14.2-3.6,15.8c2.5,1.7,11.3,0.5,11.3,0.5s0.3-1.4-0.1-2 c-0.4-0.7-7-1.7-7.4-2c-0.3-0.3,3.8-6,3.8-6.9S222.9,138.1,222.9,138.1z"></path> </g> <g> <g> <polygon class="st11" points="223.1,159.9 240.1,159.9 243.2,149.2 226.2,149.2 "></polygon> <rect x="217.8" y="159.5" class="st11" width="22.2" height="0.4"></rect> </g> <path class="st14" d="M234.7,154.4c0.1-0.4-0.1-0.7-0.5-0.7s-0.8,0.3-0.9,0.7c-0.1,0.4,0.1,0.7,0.5,0.7 C234.2,155.1,234.6,154.8,234.7,154.4z"></path> </g> </g> <g> <path class="st13" d="M137.7,157.8c0,0-1.4,2-2.7,2s-3.3-0.9-3.3-0.9s-1.2-2.7-0.4-3.7c0,0,0.8-0.4,1.7,0.3 c0.1,0.1,0.3,0.2,0.4,0.4c0.2,0.2,0.4,0.4,0.7,0.5c0.9,0.3,2-0.4,2.5,0.3c0.2,0.4,0.5,0.7,0.7,0.9 C137.5,157.7,137.7,157.8,137.7,157.8z"></path> <path class="st13" d="M119.2,172.3c0,0,5-12.2,14.1-12.4c0,0,8.4,0.9,8.8,12.4H119.2z"></path> <path class="st0" d="M130.8,160.3c0,0,3.6,0.8,4.8,0.3c0,0,0.2-1.5-1.4-1.3c-1,0.1-1.7-0.4-2.1-0.6 C131.5,158.4,130.6,159.6,130.8,160.3z"></path> <path class="st0" d="M133.9,158c-0.2,0.2-0.9-2.5-0.9-2.5c0.1,0.1,0.3,0.2,0.4,0.4c0.2,0.2,0.4,0.4,0.7,0.5 C134.1,156.5,134.2,157.8,133.9,158z"></path> <path class="st0" d="M137.3,157.5c-0.1,0-1.7,1-2,1c-0.2,0,1.2-1.9,1.2-1.9C136.8,157,137.1,157.3,137.3,157.5z"></path> <path class="st0" d="M124.1,168.9c-0.1-0.1,3.6-5.4,4.6-5.4s3.3,1.2,4.9,1.3c1.6,0.2,3.2-0.3,3.5,0.7s1.2,4.4,0.6,5 C137.2,171,126.1,170.6,124.1,168.9z"></path> </g> <rect x="149.9" y="97.2" class="st9" width="57.4" height="38.7"></rect> <g> <path class="st22" d="M198.5,129.7h-39.6c-0.9,0-1.6-0.7-1.6-1.6v-22.5c0-0.9,0.7-1.6,1.6-1.6h39.6c0.9,0,1.6,0.7,1.6,1.6v22.5 C200.1,129,199.4,129.7,198.5,129.7z M158.9,104.3c-0.7,0-1.3,0.6-1.3,1.3v22.5c0,0.7,0.6,1.3,1.3,1.3h39.6c0.7,0,1.3-0.6,1.3-1.3 v-22.5c0-0.7-0.6-1.3-1.3-1.3H158.9z"></path> </g> <g> <path class="st23" d="M170.8,124.5l-9.1,0.1c-0.4,0-0.7-0.3-0.7-0.7v-0.1c0-0.4,0.3-0.7,0.7-0.7l9.1-0.1c0.4,0,0.7,0.3,0.7,0.7v0.1 C171.5,124.2,171.2,124.5,170.8,124.5z"></path> <path class="st23" d="M182.8,124.4l-9.1,0.1c-0.4,0-0.7-0.3-0.7-0.7v-0.1c0-0.4,0.3-0.7,0.7-0.7l9.1-0.1c0.4,0,0.7,0.3,0.7,0.7v0.1 C183.5,124.1,183.2,124.4,182.8,124.4z"></path> <g> <path class="st23" d="M162.6,115.4c0,0.3-0.1,0.6-0.2,0.8c-0.1,0.3-0.4,0.4-0.7,0.4s-0.5-0.1-0.7-0.4c-0.1-0.2-0.2-0.5-0.2-0.8 s0.1-0.6,0.2-0.8c0.1-0.3,0.4-0.4,0.7-0.4s0.5,0.1,0.7,0.4C162.5,114.8,162.6,115.1,162.6,115.4z M162.2,115.4 c0-0.2,0-0.4-0.1-0.5c-0.1-0.2-0.2-0.3-0.4-0.3s-0.3,0.1-0.4,0.3c0,0.1-0.1,0.3-0.1,0.5c0,0.6,0.2,0.9,0.4,0.8 c0.2,0,0.3-0.1,0.4-0.3C162.1,115.8,162.2,115.6,162.2,115.4z"></path> <path class="st23" d="M164.5,115.4c0,0.3-0.1,0.6-0.2,0.8c-0.1,0.3-0.4,0.4-0.7,0.4s-0.5-0.1-0.7-0.4c-0.1-0.2-0.2-0.5-0.2-0.8 s0.1-0.6,0.2-0.8c0.1-0.3,0.4-0.4,0.7-0.4s0.5,0.1,0.7,0.4C164.4,114.8,164.5,115.1,164.5,115.4z M164,115.4c0-0.2,0-0.4-0.1-0.5 c-0.1-0.2-0.2-0.3-0.4-0.3s-0.3,0.1-0.4,0.3c0,0.1-0.1,0.3-0.1,0.5c0,0.6,0.2,0.9,0.4,0.8c0.2,0,0.3-0.1,0.4-0.3 C164,115.8,164,115.6,164,115.4z"></path> <path class="st23" d="M166.3,115.4c0,0.3-0.1,0.6-0.2,0.8c-0.1,0.3-0.4,0.4-0.7,0.4s-0.5-0.1-0.7-0.4c-0.1-0.2-0.2-0.5-0.2-0.8 s0.1-0.6,0.2-0.8c0.1-0.3,0.4-0.4,0.7-0.4s0.5,0.1,0.7,0.4C166.3,114.8,166.3,115,166.3,115.4z M165.9,115.4c0-0.2,0-0.4-0.1-0.5 c-0.1-0.2-0.2-0.3-0.4-0.3s-0.3,0.1-0.4,0.3c0,0.1-0.1,0.3-0.1,0.5c0,0.6,0.2,0.9,0.4,0.8c0.2,0,0.3-0.1,0.4-0.3 C165.9,115.8,165.9,115.6,165.9,115.4z"></path> <path class="st23" d="M168.2,115.4c0,0.3-0.1,0.6-0.2,0.8c-0.1,0.3-0.4,0.4-0.7,0.4s-0.5-0.1-0.7-0.4c-0.1-0.2-0.2-0.5-0.2-0.8 s0.1-0.6,0.2-0.8c0.1-0.3,0.4-0.4,0.7-0.4s0.5,0.1,0.7,0.4C168.1,114.8,168.2,115,168.2,115.4z M167.8,115.4c0-0.2,0-0.4-0.1-0.5 c-0.1-0.2-0.2-0.3-0.4-0.3s-0.3,0.1-0.4,0.3c0,0.1-0.1,0.3-0.1,0.5c0,0.6,0.2,0.9,0.4,0.8c0.2,0,0.3-0.1,0.4-0.3 C167.8,115.8,167.8,115.6,167.8,115.4z"></path> <path class="st23" d="M171,115.3c0,0.3-0.1,0.6-0.2,0.8c-0.1,0.3-0.4,0.4-0.7,0.4s-0.5-0.1-0.7-0.4c-0.1-0.2-0.2-0.5-0.2-0.8 s0.1-0.6,0.2-0.8c0.1-0.3,0.4-0.4,0.7-0.4s0.5,0.1,0.7,0.4C171,114.7,171,115,171,115.3z M170.6,115.3c0-0.2,0-0.4-0.1-0.5 c-0.1-0.2-0.2-0.3-0.4-0.3s-0.3,0.1-0.4,0.3c0,0.1-0.1,0.3-0.1,0.5c0,0.6,0.2,0.9,0.4,0.8c0.2,0,0.3-0.1,0.4-0.3 C170.6,115.7,170.6,115.6,170.6,115.3z"></path> <path class="st23" d="M172.9,115.3c0,0.3-0.1,0.6-0.2,0.8c-0.1,0.3-0.4,0.4-0.7,0.4s-0.5-0.1-0.7-0.4c-0.1-0.2-0.2-0.5-0.2-0.8 s0.1-0.6,0.2-0.8c0.1-0.3,0.4-0.4,0.7-0.4s0.5,0.1,0.7,0.4C172.9,114.7,172.9,115,172.9,115.3z M172.5,115.3c0-0.2,0-0.4-0.1-0.5 c-0.1-0.2-0.2-0.3-0.4-0.3s-0.3,0.1-0.4,0.3c0,0.1-0.1,0.3-0.1,0.5c0,0.6,0.2,0.9,0.4,0.8c0.2,0,0.3-0.1,0.4-0.3 C172.5,115.7,172.5,115.5,172.5,115.3z"></path> <path class="st23" d="M174.8,115.3c0,0.3-0.1,0.6-0.2,0.8c-0.1,0.3-0.4,0.4-0.7,0.4s-0.5-0.1-0.7-0.4c-0.1-0.2-0.2-0.5-0.2-0.8 s0.1-0.6,0.2-0.8c0.1-0.3,0.4-0.4,0.7-0.4s0.5,0.1,0.7,0.4C174.7,114.7,174.8,115,174.8,115.3z M174.4,115.3c0-0.2,0-0.4-0.1-0.5 c-0.1-0.2-0.2-0.3-0.4-0.3s-0.3,0.1-0.4,0.3c0,0.1-0.1,0.3-0.1,0.5c0,0.6,0.2,0.9,0.4,0.8c0.2,0,0.3-0.1,0.4-0.3 C174.4,115.7,174.4,115.5,174.4,115.3z"></path> <path class="st23" d="M176.7,115.3c0,0.3-0.1,0.6-0.2,0.8c-0.1,0.3-0.4,0.4-0.7,0.4s-0.5-0.1-0.7-0.4c-0.1-0.2-0.2-0.5-0.2-0.8 s0.1-0.6,0.2-0.8c0.1-0.3,0.4-0.4,0.7-0.4s0.5,0.1,0.7,0.4C176.6,114.7,176.7,115,176.7,115.3z M176.2,115.3c0-0.2,0-0.4-0.1-0.5 c-0.1-0.2-0.2-0.3-0.4-0.3s-0.3,0.1-0.4,0.3c0,0.1-0.1,0.3-0.1,0.5c0,0.6,0.2,0.9,0.4,0.8c0.2,0,0.3-0.1,0.4-0.3 C176.2,115.7,176.2,115.5,176.2,115.3z"></path> <path class="st23" d="M179.5,115.3c0,0.3-0.1,0.6-0.2,0.8c-0.1,0.3-0.4,0.4-0.7,0.4s-0.5-0.1-0.7-0.4c-0.1-0.2-0.2-0.5-0.2-0.8 s0.1-0.6,0.2-0.8c0.1-0.3,0.4-0.4,0.7-0.4s0.5,0.1,0.7,0.4C179.4,114.7,179.5,114.9,179.5,115.3z M179.1,115.3 c0-0.2,0-0.4-0.1-0.5c-0.1-0.2-0.2-0.3-0.4-0.3s-0.3,0.1-0.4,0.3c0,0.1-0.1,0.3-0.1,0.5c0,0.6,0.2,0.9,0.4,0.8 c0.2,0,0.3-0.1,0.4-0.3C179.1,115.7,179.1,115.5,179.1,115.3z"></path> <path class="st23" d="M181.4,115.3c0,0.3-0.1,0.6-0.2,0.8c-0.1,0.3-0.4,0.4-0.7,0.4s-0.5-0.1-0.7-0.4c-0.1-0.2-0.2-0.5-0.2-0.8 s0.1-0.6,0.2-0.8c0.1-0.3,0.4-0.4,0.7-0.4s0.5,0.1,0.7,0.4C181.3,114.7,181.4,114.9,181.4,115.3z M181,115.3c0-0.2,0-0.4-0.1-0.5 c-0.1-0.2-0.2-0.3-0.4-0.3s-0.3,0.1-0.4,0.3c0,0.1-0.1,0.3-0.1,0.5c0,0.6,0.2,0.9,0.4,0.8c0.2,0,0.3-0.1,0.4-0.3 C180.9,115.7,181,115.5,181,115.3z"></path> <path class="st23" d="M183.3,115.2c0,0.3-0.1,0.6-0.2,0.8c-0.1,0.3-0.4,0.4-0.7,0.4s-0.5-0.1-0.7-0.4c-0.1-0.2-0.2-0.5-0.2-0.8 s0.1-0.6,0.2-0.8c0.1-0.3,0.4-0.4,0.7-0.4s0.5,0.1,0.7,0.4C183.2,114.6,183.3,114.9,183.3,115.2z M182.8,115.3 c0-0.2,0-0.4-0.1-0.5c-0.1-0.2-0.2-0.3-0.4-0.3s-0.3,0.1-0.4,0.3c0,0.1-0.1,0.3-0.1,0.5c0,0.6,0.2,0.9,0.4,0.8 c0.2,0,0.3-0.1,0.4-0.3C182.8,115.6,182.8,115.5,182.8,115.3z"></path> <path class="st23" d="M185.1,115.2c0,0.3-0.1,0.6-0.2,0.8c-0.1,0.3-0.4,0.4-0.7,0.4s-0.5-0.1-0.7-0.4c-0.1-0.2-0.2-0.5-0.2-0.8 s0.1-0.6,0.2-0.8c0.1-0.3,0.4-0.4,0.7-0.4s0.5,0.1,0.7,0.4C185.1,114.6,185.1,114.9,185.1,115.2z M184.7,115.2 c0-0.2,0-0.4-0.1-0.5c-0.1-0.2-0.2-0.3-0.4-0.3s-0.3,0.1-0.4,0.3c0,0.1-0.1,0.3-0.1,0.5c0,0.6,0.2,0.9,0.4,0.8 c0.2,0,0.3-0.1,0.4-0.3C184.7,115.6,184.7,115.4,184.7,115.2z"></path> <path class="st23" d="M188,115.2c0,0.3-0.1,0.6-0.2,0.8c-0.1,0.3-0.4,0.4-0.7,0.4s-0.5-0.1-0.7-0.4c-0.1-0.2-0.2-0.5-0.2-0.8 s0.1-0.6,0.2-0.8c0.1-0.3,0.4-0.4,0.7-0.4s0.5,0.1,0.7,0.4C187.9,114.6,188,114.9,188,115.2z M187.6,115.2c0-0.2,0-0.4-0.1-0.5 c-0.1-0.2-0.2-0.3-0.4-0.3s-0.3,0.1-0.4,0.3c0,0.1-0.1,0.3-0.1,0.5c0,0.6,0.2,0.9,0.4,0.8c0.2,0,0.3-0.1,0.4-0.3 C187.5,115.6,187.6,115.4,187.6,115.2z"></path> <path class="st23" d="M189.8,115.2c0,0.3-0.1,0.6-0.2,0.8c-0.1,0.3-0.4,0.4-0.7,0.4s-0.5-0.1-0.7-0.4c-0.1-0.2-0.2-0.5-0.2-0.8 s0.1-0.6,0.2-0.8c0.1-0.3,0.4-0.4,0.7-0.4s0.5,0.1,0.7,0.4C189.8,114.6,189.8,114.9,189.8,115.2z M189.4,115.2 c0-0.2,0-0.4-0.1-0.5c-0.1-0.2-0.2-0.3-0.4-0.3s-0.3,0.1-0.4,0.3c0,0.1-0.1,0.3-0.1,0.5c0,0.6,0.2,0.9,0.4,0.8 c0.2,0,0.3-0.1,0.4-0.3C189.4,115.6,189.4,115.4,189.4,115.2z"></path> <path class="st23" d="M191.7,115.2c0,0.3-0.1,0.6-0.2,0.8c-0.1,0.3-0.4,0.4-0.7,0.4s-0.5-0.1-0.7-0.4c-0.1-0.2-0.2-0.5-0.2-0.8 s0.1-0.6,0.2-0.8c0.1-0.3,0.4-0.4,0.7-0.4s0.5,0.1,0.7,0.4C191.7,114.6,191.7,114.9,191.7,115.2z M191.3,115.2 c0-0.2,0-0.4-0.1-0.5c-0.1-0.2-0.2-0.3-0.4-0.3s-0.3,0.1-0.4,0.3c0,0.1-0.1,0.3-0.1,0.5c0,0.6,0.2,0.9,0.4,0.8 c0.2,0,0.3-0.1,0.4-0.3C191.3,115.6,191.3,115.4,191.3,115.2z"></path> <path class="st23" d="M193.6,115.2c0,0.3-0.1,0.6-0.2,0.8c-0.1,0.3-0.4,0.4-0.7,0.4s-0.5-0.1-0.7-0.4c-0.1-0.2-0.2-0.5-0.2-0.8 s0.1-0.6,0.2-0.8c0.1-0.3,0.4-0.4,0.7-0.4s0.5,0.1,0.7,0.4C193.5,114.6,193.6,114.8,193.6,115.2z M193.2,115.2 c0-0.2,0-0.4-0.1-0.5c-0.1-0.2-0.2-0.3-0.4-0.3s-0.3,0.1-0.4,0.3c0,0.1-0.1,0.3-0.1,0.5c0,0.6,0.2,0.9,0.4,0.8 c0.2,0,0.3-0.1,0.4-0.3C193.2,115.6,193.2,115.4,193.2,115.2z"></path> </g> <path class="st23" d="M170.5,109.1l-8.9,0.1c-0.4,0-0.7-0.3-0.7-0.7l0,0c0-0.4,0.3-0.7,0.7-0.7l8.9-0.1c0.4,0,0.7,0.3,0.7,0.7l0,0 C171.2,108.8,170.9,109.1,170.5,109.1z"></path> <g> <g> <path class="st23" d="M196,108.2c0-0.3-0.1-0.5-0.2-0.7c0-0.1-0.1-0.1-0.2,0l0,0c0,0,0,0.1,0,0.2c0.1,0.1,0.2,0.3,0.2,0.5 s-0.1,0.4-0.2,0.5c0,0,0,0.1,0,0.2l0,0c0,0,0.1,0,0.2,0C196,108.7,196,108.4,196,108.2z"></path> </g> <g> <path class="st23" d="M196.6,108.2c0-0.4-0.2-0.8-0.4-1.1c0,0-0.1,0-0.2,0l0,0c0,0,0,0.1,0,0.2c0.2,0.2,0.3,0.6,0.4,0.9 c0,0.4-0.1,0.7-0.3,0.9c0,0,0,0.1,0,0.2l0,0c0,0,0.1,0,0.2,0C196.5,109,196.6,108.6,196.6,108.2z"></path> </g> <g> <path class="st23" d="M197.1,108.2c0-0.6-0.2-1.1-0.6-1.5c0,0-0.1,0-0.2,0l0,0c0,0,0,0.1,0,0.2c0.3,0.3,0.5,0.8,0.5,1.3 s-0.2,1-0.5,1.3c0,0,0,0.1,0,0.2l0,0c0,0,0.1,0,0.2,0C196.9,109.3,197.1,108.7,197.1,108.2z"></path> </g> <g> <path class="st23" d="M197.7,108.2c0-0.7-0.3-1.4-0.7-1.8c0,0-0.1,0-0.2,0l0,0c0,0,0,0.1,0,0.2c0.4,0.4,0.7,1,0.7,1.6 s-0.2,1.2-0.6,1.7c0,0,0,0.1,0,0.2l0,0c0,0,0.1,0,0.2,0C197.4,109.5,197.7,108.9,197.7,108.2z"></path> </g> </g> <g> <g> <path class="st23" d="M161.8,126.2c0,0.2,0,0.3-0.1,0.4s-0.2,0.2-0.3,0.2s-0.3-0.1-0.3-0.2c-0.1-0.1-0.1-0.2-0.1-0.4 c0-0.2,0-0.3,0.1-0.4s0.2-0.2,0.3-0.2s0.3,0.1,0.3,0.2C161.8,125.9,161.8,126,161.8,126.2z M161.6,126.2c0-0.1,0-0.2,0-0.3 c0-0.1-0.1-0.2-0.2-0.2c-0.1,0-0.1,0.1-0.2,0.2c0,0.1,0,0.2,0,0.3c0,0.3,0.1,0.4,0.2,0.4c0.1,0,0.1-0.1,0.2-0.2 C161.6,126.4,161.6,126.3,161.6,126.2z"></path> <path class="st23" d="M162.7,126.2c0,0.2,0,0.3-0.1,0.4s-0.2,0.2-0.3,0.2s-0.3-0.1-0.3-0.2c-0.1-0.1-0.1-0.2-0.1-0.4 c0-0.2,0-0.3,0.1-0.4s0.2-0.2,0.3-0.2s0.3,0.1,0.3,0.2C162.7,125.9,162.7,126,162.7,126.2z M162.5,126.2c0-0.1,0-0.2,0-0.3 c0-0.1-0.1-0.2-0.2-0.2c-0.1,0-0.1,0.1-0.2,0.2c0,0.1,0,0.2,0,0.3c0,0.3,0.1,0.4,0.2,0.4c0.1,0,0.1-0.1,0.2-0.2 C162.5,126.3,162.5,126.3,162.5,126.2z"></path> <path class="st23" d="M163.4,125.6C163.4,125.7,163.4,125.7,163.4,125.6l-0.5,1l-0.1,0.1c0,0,0,0-0.1,0c0,0,0,0,0-0.1 c0,0,0,0,0-0.1l0.5-1C163.2,125.6,163.2,125.6,163.4,125.6C163.3,125.6,163.3,125.6,163.4,125.6L163.4,125.6z"></path> <path class="st23" d="M164.2,126.1c0,0.2,0,0.3-0.1,0.4s-0.2,0.2-0.3,0.2s-0.3-0.1-0.3-0.2c-0.1-0.1-0.1-0.2-0.1-0.4 c0-0.2,0-0.3,0.1-0.4s0.2-0.2,0.3-0.2s0.3,0.1,0.3,0.2C164.2,125.9,164.2,126,164.2,126.1z M164,126.1c0-0.1,0-0.2,0-0.3 c0-0.1-0.1-0.2-0.2-0.2c-0.1,0-0.1,0.1-0.2,0.2c0,0.1,0,0.2,0,0.3c0,0.3,0.1,0.4,0.2,0.4c0.1,0,0.1-0.1,0.2-0.2 C164,126.3,164,126.2,164,126.1z"></path> <path class="st23" d="M165.1,126.1c0,0.2,0,0.3-0.1,0.4s-0.2,0.2-0.3,0.2s-0.3-0.1-0.3-0.2c-0.1-0.1-0.1-0.2-0.1-0.4 c0-0.2,0-0.3,0.1-0.4s0.2-0.2,0.3-0.2s0.3,0.1,0.3,0.2C165.1,125.8,165.1,126,165.1,126.1z M164.9,126.1c0-0.1,0-0.2,0-0.3 c0-0.1-0.1-0.2-0.2-0.2c-0.1,0-0.1,0.1-0.2,0.2c0,0.1,0,0.2,0,0.3c0,0.3,0.1,0.4,0.2,0.4c0.1,0,0.1-0.1,0.2-0.2 C164.9,126.3,164.9,126.2,164.9,126.1z"></path> <path class="st23" d="M166,126.1c0,0.2,0,0.3-0.1,0.4s-0.2,0.2-0.3,0.2s-0.3-0.1-0.3-0.2c-0.1-0.1-0.1-0.2-0.1-0.4 c0-0.2,0-0.3,0.1-0.4s0.2-0.2,0.3-0.2s0.3,0.1,0.3,0.2C166,125.8,166,126,166,126.1z M165.8,126.1c0-0.1,0-0.2,0-0.3 c0-0.1-0.1-0.2-0.2-0.2c-0.1,0-0.1,0.1-0.2,0.2c0,0.1,0,0.2,0,0.3c0,0.3,0.1,0.4,0.2,0.4c0.1,0,0.1-0.1,0.2-0.2 C165.8,126.3,165.8,126.2,165.8,126.1z"></path> <path class="st23" d="M166.9,126.1c0,0.2,0,0.3-0.1,0.4s-0.2,0.2-0.3,0.2s-0.3-0.1-0.3-0.2c-0.1-0.1-0.1-0.2-0.1-0.4 c0-0.2,0-0.3,0.1-0.4s0.2-0.2,0.3-0.2s0.3,0.1,0.3,0.2C166.9,125.8,166.9,126,166.9,126.1z M166.7,126.1c0-0.1,0-0.2,0-0.3 c0-0.1-0.1-0.2-0.2-0.2c-0.1,0-0.1,0.1-0.2,0.2c0,0.1,0,0.2,0,0.3c0,0.3,0.1,0.4,0.2,0.4c0.1,0,0.1-0.1,0.2-0.2 C166.7,126.3,166.7,126.2,166.7,126.1z"></path> </g> </g> </g> <g> <g> <defs> <rect id="SVGID_00000009564789196685128790000015820049194166294155_" x="149.9" y="97.2" width="57.5" height="102.4"></rect> </defs> <clipPath id="SVGID_00000168798161797365505510000008288381164536082611_"> <use xlink:href="#SVGID_00000009564789196685128790000015820049194166294155_" style="overflow:visible;"></use> </clipPath> <g style="clip-path:url(#SVGID_00000168798161797365505510000008288381164536082611_);"> <path class="st25" d="M196.4,139.8c0-0.1,0.1-0.1,0.1-0.2l0,0l0,0l0.1-0.1l0.2-0.2l0,0c0.9-0.4,2.7,0,4.5,1.2 c2.2,1.4,3.6,3.4,3.2,4.4h0.1l-0.2,0.2l0,0l0,0l0,0c-0.1,0.1-0.1,0.1-0.2,0.1l0,0l0,0c-0.9,0.4-2.7,0-4.5-1.2 C197.4,142.8,196,140.8,196.4,139.8z"></path> <path class="st6" d="M201.6,140.3c-2.2-1.5-4.4-1.8-4.9-0.8s0.9,3,3.2,4.5c2.2,1.5,4.4,1.8,4.9,0.8 C205.2,143.7,203.8,141.7,201.6,140.3z"></path> <g> <path class="st26" d="M200,143.7c-0.9-0.6-1.7-1.3-2.3-2.1c-0.5-0.7-0.7-1.4-0.5-1.8c0.1-0.2,0.3-0.4,0.6-0.5 c0.8-0.2,2.3,0.2,3.7,1.2l0,0c0.9,0.6,1.7,1.3,2.3,2.1c0.5,0.7,0.7,1.4,0.5,1.8c-0.1,0.2-0.3,0.4-0.6,0.5 c-0.1,0-0.3,0.1-0.5,0.1C202.3,144.9,201.2,144.5,200,143.7z M197.8,139.5c-0.2,0.1-0.4,0.2-0.5,0.4c-0.2,0.4,0,1,0.5,1.7 s1.3,1.4,2.2,2c1.1,0.7,2.3,1.2,3.1,1.2c0.2,0,0.3,0,0.4-0.1c0.2-0.1,0.4-0.2,0.5-0.4c0.2-0.4,0-1-0.5-1.7s-1.3-1.4-2.2-2 c-1.1-0.7-2.3-1.2-3.1-1.2C198.1,139.4,197.9,139.5,197.8,139.5z"></path> </g> <g> <path class="st26" d="M201.8,142.7c0.1,0,0.1,0,0.1,0s0.1,0,0.1-0.1v-0.1c0,0,0-0.1,0-0.2c0-0.1-0.1-0.1-0.1-0.2 c-0.1-0.1-0.1-0.1-0.2-0.2c-0.1-0.1-0.2-0.1-0.3-0.2v-0.5c0.2,0.1,0.4,0.2,0.5,0.3s0.3,0.2,0.4,0.3c0.1,0.1,0.2,0.2,0.2,0.3 c0.1,0.1,0.1,0.2,0.1,0.3l0.5,0.2v0.3l-0.5-0.2c0,0.1,0,0.2-0.1,0.2c0,0.1-0.1,0.1-0.2,0.1c-0.1,0-0.2,0-0.3,0s-0.2-0.1-0.4-0.1 c-0.2-0.1-0.3-0.1-0.4-0.2c-0.1-0.1-0.2-0.2-0.3-0.3s-0.2-0.2-0.3-0.3s-0.2-0.3-0.2-0.4c0-0.1-0.1-0.2-0.1-0.2 c0-0.1-0.1-0.1-0.1-0.2l-0.1-0.1c-0.1,0-0.1-0.1-0.2-0.1c-0.1,0-0.1,0-0.2-0.1c-0.1,0-0.1,0-0.1,0s-0.1,0-0.1,0.1v0.1 c0,0.1,0.1,0.2,0.2,0.3c0.1,0.1,0.3,0.2,0.4,0.3v0.5c-0.2-0.1-0.3-0.2-0.4-0.2s-0.3-0.2-0.4-0.3c-0.1-0.1-0.2-0.2-0.3-0.3 s-0.1-0.2-0.1-0.3l-0.5-0.2v-0.3l0.5,0.2c0-0.1,0-0.2,0.1-0.2c0-0.1,0.1-0.1,0.2-0.1c0.1,0,0.2,0,0.3,0s0.2,0.1,0.4,0.1 c0.2,0.1,0.3,0.1,0.4,0.2c0.1,0.1,0.2,0.2,0.3,0.3s0.2,0.2,0.3,0.3s0.1,0.3,0.2,0.4c0,0.1,0.1,0.2,0.1,0.2 c0,0.1,0.1,0.1,0.1,0.2l0.1,0.1c0.1,0,0.1,0.1,0.2,0.1C201.7,142.7,201.7,142.7,201.8,142.7z"></path> </g> </g> </g> <g> <defs> <rect id="SVGID_00000088843592264839543780000012677459331397428644_" x="149.9" y="97.2" width="57.5" height="102.4"></rect> </defs> <clipPath id="SVGID_00000116230909709336188040000000327289360406638983_"> <use xlink:href="#SVGID_00000088843592264839543780000012677459331397428644_" style="overflow:visible;"></use> </clipPath> <g style="clip-path:url(#SVGID_00000116230909709336188040000000327289360406638983_);"> <path class="st25" d="M152.4,145.5c0-0.1,0.1-0.1,0.1-0.2l0,0l0,0l0.1-0.1l0.2-0.2l0,0c0.9-0.4,2.7,0,4.5,1.2 c2.2,1.4,3.6,3.4,3.2,4.4h0.1l-0.2,0.2l0,0l0,0l0,0c-0.1,0.1-0.1,0.1-0.2,0.1l0,0l0,0c-0.9,0.4-2.7,0-4.5-1.2 C153.4,148.5,151.9,146.5,152.4,145.5z"></path> <path class="st6" d="M157.6,146c-2.2-1.5-4.4-1.8-4.9-0.8s0.9,3,3.2,4.5c2.2,1.5,4.4,1.8,4.9,0.8 C161.2,149.4,159.8,147.4,157.6,146z"></path> <g> <path class="st26" d="M156,149.4c-0.9-0.6-1.7-1.3-2.3-2.1c-0.5-0.7-0.7-1.4-0.5-1.8c0.1-0.2,0.3-0.4,0.6-0.5 c0.8-0.2,2.3,0.2,3.7,1.2l0,0c0.9,0.6,1.7,1.3,2.3,2.1c0.5,0.7,0.7,1.4,0.5,1.8c-0.1,0.2-0.3,0.4-0.6,0.5 c-0.1,0-0.3,0.1-0.5,0.1C158.3,150.6,157.1,150.2,156,149.4z M153.8,145.2c-0.2,0.1-0.4,0.2-0.5,0.4c-0.2,0.4,0,1,0.5,1.7 s1.3,1.4,2.2,2c1.1,0.7,2.3,1.2,3.1,1.2c0.2,0,0.3,0,0.4-0.1c0.2-0.1,0.4-0.2,0.5-0.4c0.2-0.4,0-1-0.5-1.7s-1.3-1.4-2.2-2 c-1.1-0.7-2.3-1.2-3.1-1.2C154.1,145.2,153.9,145.2,153.8,145.2z"></path> </g> <g> <path class="st26" d="M157.8,148.4c0.1,0,0.1,0,0.1,0s0.1,0,0.1-0.1v-0.1c0,0,0-0.1,0-0.2c0-0.1-0.1-0.1-0.1-0.2 c-0.1-0.1-0.1-0.1-0.2-0.2c-0.1-0.1-0.2-0.1-0.3-0.2v-0.5c0.2,0.1,0.4,0.2,0.5,0.3s0.3,0.2,0.4,0.3c0.1,0.1,0.2,0.2,0.2,0.3 c0.1,0.1,0.1,0.2,0.1,0.3l0.5,0.2v0.3l-0.5-0.2c0,0.1,0,0.2-0.1,0.2c0,0.1-0.1,0.1-0.2,0.1c-0.1,0-0.2,0-0.3,0s-0.2-0.1-0.4-0.1 c-0.2-0.1-0.3-0.1-0.4-0.2c-0.1-0.1-0.2-0.2-0.3-0.3s-0.2-0.2-0.3-0.3s-0.2-0.3-0.2-0.4c0-0.1-0.1-0.2-0.1-0.2 c0-0.1-0.1-0.1-0.1-0.2l-0.1-0.1c-0.1,0-0.1-0.1-0.2-0.1c-0.1,0-0.1,0-0.2-0.1c-0.1,0-0.1,0-0.1,0s-0.1,0-0.1,0.1v0.1 c0,0.1,0.1,0.2,0.2,0.3s0.3,0.2,0.4,0.3v0.5c-0.2-0.1-0.3-0.2-0.4-0.2c-0.1-0.1-0.3-0.2-0.4-0.3c-0.1-0.1-0.2-0.2-0.3-0.3 s-0.1-0.2-0.1-0.3l-0.5-0.2v-0.3l0.5,0.2c0-0.1,0-0.2,0.1-0.2c0-0.1,0.1-0.1,0.2-0.1c0.1,0,0.2,0,0.3,0s0.2,0.1,0.4,0.1 c0.2,0.1,0.3,0.1,0.4,0.2c0.1,0.1,0.2,0.2,0.3,0.3s0.2,0.2,0.3,0.3s0.1,0.3,0.2,0.4c0,0.1,0.1,0.2,0.1,0.2 c0,0.1,0.1,0.1,0.1,0.2l0.1,0.1c0.1,0,0.1,0.1,0.2,0.1C157.7,148.4,157.7,148.4,157.8,148.4z"></path> </g> </g> </g> <g> <defs> <rect id="SVGID_00000031173196503867194680000017486213366713426304_" x="149.9" y="97.2" width="57.5" height="102.4"></rect> </defs> <clipPath id="SVGID_00000171680694796674854560000004654828906804612758_"> <use xlink:href="#SVGID_00000031173196503867194680000017486213366713426304_" style="overflow:visible;"></use> </clipPath> <g style="clip-path:url(#SVGID_00000171680694796674854560000004654828906804612758_);"> <path class="st25" d="M197.4,179.2c0-0.1,0.1-0.1,0.1-0.2l0,0l0,0l0.1-0.1l0.2-0.2l0,0c0.9-0.4,2.8,0,4.7,1.3 c2.3,1.5,3.8,3.6,3.4,4.7h0.1l-0.3,0.3l0,0l0,0l0,0c-0.1,0.1-0.1,0.1-0.2,0.2l0,0l0,0c-0.9,0.5-2.8,0-4.7-1.3 C198.4,182.4,196.9,180.3,197.4,179.2z"></path> <path class="st6" d="M202.8,179.8c-2.3-1.5-4.7-1.9-5.2-0.8c-0.5,1.1,1,3.2,3.3,4.7s4.7,1.9,5.2,0.8 C206.6,183.4,205.1,181.3,202.8,179.8z"></path> <g> <path class="st26" d="M201.1,183.4c-1-0.6-1.8-1.4-2.4-2.2c-0.6-0.8-0.8-1.5-0.6-1.9c0.1-0.2,0.3-0.4,0.6-0.5 c0.9-0.2,2.4,0.2,3.9,1.2l0,0c1,0.6,1.8,1.4,2.4,2.2c0.6,0.8,0.8,1.5,0.6,1.9c-0.1,0.2-0.3,0.4-0.6,0.5c-0.2,0-0.3,0.1-0.5,0.1 C203.6,184.7,202.3,184.2,201.1,183.4z M198.8,179c-0.2,0.1-0.4,0.2-0.5,0.4c-0.2,0.4,0,1,0.5,1.8c0.5,0.7,1.4,1.5,2.3,2.1 c1.2,0.8,2.4,1.3,3.3,1.3c0.2,0,0.3,0,0.5-0.1s0.4-0.2,0.5-0.4c0.2-0.4,0-1-0.5-1.8c-0.5-0.7-1.4-1.5-2.3-2.1 c-1.2-0.8-2.4-1.3-3.3-1.3C199.1,178.9,199,178.9,198.8,179z"></path> </g> <g> <path class="st26" d="M203,182.3c0.1,0,0.1,0,0.1,0s0.1,0,0.1-0.1v-0.1c0-0.1,0-0.1,0-0.2c0-0.1-0.1-0.1-0.1-0.2 c-0.1-0.1-0.1-0.1-0.2-0.2c-0.1-0.1-0.2-0.1-0.3-0.2l-0.1-0.5c0.2,0.1,0.4,0.2,0.5,0.3s0.3,0.2,0.4,0.3c0.1,0.1,0.2,0.2,0.2,0.4 c0.1,0.1,0.1,0.2,0.1,0.3l0.5,0.2v0.3l-0.5-0.2c0,0.1,0,0.2-0.1,0.3c0,0.1-0.1,0.1-0.2,0.1c-0.1,0-0.2,0-0.3,0s-0.3-0.1-0.4-0.1 c-0.2-0.1-0.3-0.2-0.4-0.2c-0.1-0.1-0.2-0.2-0.3-0.3s-0.2-0.2-0.3-0.4c-0.1-0.1-0.2-0.3-0.2-0.4c0-0.1-0.1-0.2-0.1-0.2 c0-0.1-0.1-0.1-0.1-0.2s-0.1-0.1-0.1-0.1c-0.1,0-0.1-0.1-0.2-0.1c-0.1,0-0.1,0-0.2-0.1c-0.1,0-0.1,0-0.1,0s-0.1,0-0.1,0.1v0.1 c0,0.1,0.1,0.2,0.2,0.3c0.1,0.1,0.3,0.2,0.5,0.3l0.1,0.5c-0.2-0.1-0.3-0.2-0.5-0.3c-0.1-0.1-0.3-0.2-0.4-0.3 c-0.1-0.1-0.2-0.2-0.3-0.3s-0.1-0.2-0.2-0.3l-0.6-0.2v-0.3l0.6,0.2c0-0.1,0-0.2,0.1-0.3c0-0.1,0.1-0.1,0.2-0.1 c0.1,0,0.2,0,0.3,0s0.2,0.1,0.4,0.1c0.2,0.1,0.3,0.2,0.4,0.3c0.1,0.1,0.2,0.2,0.3,0.3s0.2,0.2,0.3,0.4c0.1,0.1,0.2,0.3,0.2,0.4 c0,0.1,0.1,0.2,0.1,0.2c0,0.1,0.1,0.1,0.1,0.2s0.1,0.1,0.2,0.1c0.1,0,0.1,0.1,0.2,0.1C202.9,182.3,203,182.3,203,182.3z"></path> </g> </g> </g> <g> <defs> <rect id="SVGID_00000028307912623173261920000007402072994809421734_" x="149.9" y="97.2" width="57.5" height="102.4"></rect> </defs> <clipPath id="SVGID_00000106866959995425511210000010902052280193969554_"> <use xlink:href="#SVGID_00000028307912623173261920000007402072994809421734_" style="overflow:visible;"></use> </clipPath> <g style="clip-path:url(#SVGID_00000106866959995425511210000010902052280193969554_);"> <path class="st25" d="M168.4,189.1c0-0.1,0.1-0.2,0.2-0.3l0,0l0,0c0-0.1,0.1-0.1,0.2-0.2l0.2-0.2h0.1c1.3-0.6,3.8,0,6.5,1.7 c3.2,2.1,5.2,4.9,4.6,6.4l0.1,0.1l-0.4,0.4c0,0,0,0-0.1,0.1l0,0l0,0c-0.1,0.1-0.2,0.2-0.3,0.2l0,0l0,0c-1.2,0.6-3.9,0-6.5-1.7 C169.7,193.5,167.7,190.6,168.4,189.1z"></path> <path class="st6" d="M175.8,189.9c-3.2-2.1-6.4-2.6-7.1-1.1c-0.7,1.5,1.4,4.4,4.6,6.5s6.4,2.6,7.1,1.1 C181.1,194.9,179.1,192,175.8,189.9z"></path> <g> <path class="st26" d="M173.5,194.9c-1.4-0.9-2.5-2-3.3-3c-0.8-1.1-1.1-2-0.8-2.7c0.1-0.3,0.4-0.5,0.8-0.7 c1.2-0.3,3.3,0.3,5.4,1.7l0,0c1.4,0.9,2.5,2,3.3,3c0.8,1.1,1.1,2,0.8,2.7c-0.1,0.3-0.4,0.5-0.8,0.7c-0.2,0.1-0.4,0.1-0.7,0.1 C176.9,196.6,175.2,196,173.5,194.9z M170.4,188.8c-0.3,0.1-0.6,0.3-0.7,0.5c-0.3,0.5,0,1.4,0.7,2.4s1.9,2.1,3.2,2.9 c1.7,1.1,3.4,1.7,4.5,1.7c0.2,0,0.5,0,0.6-0.1c0.3-0.1,0.6-0.3,0.7-0.5c0.3-0.5,0-1.4-0.7-2.4s-1.9-2.1-3.2-2.9 c-1.7-1.1-3.4-1.7-4.5-1.7C170.8,188.7,170.5,188.7,170.4,188.8z"></path> </g> <g> <path class="st26" d="M176.1,193.4c0.1,0,0.1,0,0.2,0c0.1,0,0.1,0,0.1-0.1c0,0,0-0.1,0-0.2c0-0.1,0-0.1-0.1-0.2 c0-0.1-0.1-0.2-0.2-0.2c-0.1-0.1-0.2-0.2-0.3-0.2c-0.1-0.1-0.3-0.2-0.4-0.2l-0.1-0.7c0.3,0.1,0.5,0.3,0.7,0.4s0.4,0.3,0.5,0.5 s0.3,0.3,0.3,0.5c0.1,0.2,0.1,0.3,0.2,0.5l0.7,0.3v0.4l-0.7-0.3c0,0.1,0,0.3-0.1,0.4c-0.1,0.1-0.1,0.2-0.3,0.2 c-0.1,0-0.2,0-0.4,0s-0.3-0.1-0.6-0.2c-0.2-0.1-0.4-0.2-0.6-0.3c-0.2-0.1-0.3-0.3-0.5-0.4c-0.1-0.2-0.3-0.3-0.4-0.5 c-0.1-0.2-0.2-0.4-0.3-0.6c-0.1-0.1-0.1-0.2-0.2-0.3c-0.1-0.1-0.1-0.2-0.2-0.2c-0.1-0.1-0.1-0.1-0.2-0.2c-0.1,0-0.2-0.1-0.2-0.1 c-0.1,0-0.2-0.1-0.2-0.1c-0.1,0-0.1,0-0.2,0c-0.1,0-0.1,0-0.1,0.1c0,0,0,0.1,0,0.2c0,0.1,0.1,0.3,0.2,0.4 c0.1,0.1,0.4,0.3,0.7,0.4l0.1,0.7c-0.2-0.1-0.5-0.2-0.6-0.4c-0.2-0.1-0.4-0.3-0.5-0.4c-0.1-0.1-0.3-0.3-0.4-0.5 c-0.1-0.2-0.2-0.3-0.2-0.5l-0.8-0.3v-0.4l0.8,0.3c0-0.1,0-0.3,0.1-0.4c0.1-0.1,0.2-0.2,0.3-0.2s0.3,0,0.4,0 c0.2,0,0.3,0.1,0.5,0.2c0.2,0.1,0.4,0.2,0.6,0.3c0.2,0.1,0.3,0.3,0.5,0.4c0.1,0.2,0.3,0.3,0.4,0.5c0.1,0.2,0.2,0.4,0.3,0.6 c0.1,0.1,0.1,0.2,0.2,0.3c0.1,0.1,0.1,0.2,0.2,0.2c0.1,0.1,0.1,0.1,0.2,0.2c0.1,0.1,0.2,0.1,0.3,0.1 C176,193.4,176.1,193.4,176.1,193.4z"></path> </g> </g> </g> <g> <defs> <rect id="SVGID_00000137817524879604501710000003166402792805054600_" x="149.9" y="97.2" width="57.5" height="102.4"></rect> </defs> <clipPath id="SVGID_00000082327293434218808610000014298657026598380707_"> <use xlink:href="#SVGID_00000137817524879604501710000003166402792805054600_" style="overflow:visible;"></use> </clipPath> <g style="clip-path:url(#SVGID_00000082327293434218808610000014298657026598380707_);"> <path class="st25" d="M202.7,172.1c0.1-0.1,0.1-0.2,0.2-0.3l0,0l0,0c0.1-0.1,0.1-0.1,0.2-0.2l0.3-0.3l0.1,0.1 c1.4-0.7,4.4,0,7.3,2c3.6,2.3,5.9,5.6,5.2,7.3l0.1,0.1l-0.4,0.4c0,0,0,0-0.1,0.1l0,0l0,0c-0.1,0.1-0.2,0.2-0.3,0.2l0,0l0,0 c-1.4,0.7-4.4,0-7.4-2C204.2,177.1,201.9,173.8,202.7,172.1z"></path> <path class="st6" d="M211.2,173c-3.7-2.4-7.3-2.9-8-1.3c-0.8,1.7,1.5,5,5.2,7.4s7.3,2.9,8,1.3C217.1,178.7,214.8,175.4,211.2,173 z"></path> <g> <path class="st26" d="M208.5,178.6c-1.5-1-2.8-2.2-3.7-3.4s-1.2-2.3-0.9-3c0.2-0.4,0.5-0.6,0.9-0.7c1.3-0.4,3.7,0.4,6.1,1.9l0,0 c1.5,1,2.8,2.2,3.7,3.4s1.2,2.3,0.9,3c-0.2,0.4-0.5,0.6-0.9,0.7c-0.2,0.1-0.5,0.1-0.8,0.1C212.4,180.6,210.4,179.9,208.5,178.6z M205,171.7c-0.4,0.1-0.6,0.3-0.8,0.6c-0.3,0.6,0,1.6,0.8,2.7c0.8,1.2,2.1,2.3,3.6,3.3c1.9,1.2,3.8,1.9,5.1,1.9 c0.3,0,0.5,0,0.7-0.1c0.4-0.1,0.6-0.3,0.8-0.6c0.3-0.6,0-1.6-0.8-2.7c-0.8-1.2-2.1-2.3-3.6-3.3c-1.9-1.2-3.8-1.9-5.1-1.9 C205.4,171.6,205.2,171.7,205,171.7z"></path> </g> </g> </g> <g> <defs> <rect id="SVGID_00000152241698495992857590000004816175669411371698_" x="149.9" y="97.2" width="57.5" height="102.4"></rect> </defs> <clipPath id="SVGID_00000040562936560917105700000010299264159444409489_"> <use xlink:href="#SVGID_00000152241698495992857590000004816175669411371698_" style="overflow:visible;"></use> </clipPath> <g style="clip-path:url(#SVGID_00000040562936560917105700000010299264159444409489_);"> <path class="st25" d="M143.3,158.7c0.1-0.1,0.1-0.2,0.2-0.3l0,0l0,0c0.1-0.1,0.1-0.1,0.2-0.2l0.3-0.3l0.1,0.1 c1.4-0.7,4.4,0,7.3,2c3.6,2.3,5.9,5.6,5.2,7.3l0.1,0.1l-0.4,0.4c0,0,0,0-0.1,0.1l0,0l0,0c-0.1,0.1-0.2,0.2-0.3,0.2l0,0l0,0 c-1.4,0.7-4.4,0-7.4-2C144.8,163.7,142.5,160.4,143.3,158.7z"></path> <path class="st6" d="M151.8,159.5c-3.7-2.4-7.3-2.9-8-1.3c-0.8,1.7,1.5,5,5.2,7.4s7.3,2.9,8,1.3 C157.7,165.2,155.4,161.9,151.8,159.5z"></path> <g> <path class="st26" d="M149.1,165.1c-1.5-1-2.8-2.2-3.7-3.4s-1.2-2.3-0.9-3c0.2-0.4,0.5-0.6,0.9-0.7c1.3-0.4,3.7,0.4,6.1,1.9l0,0 c1.5,1,2.8,2.2,3.7,3.4s1.2,2.3,0.9,3c-0.2,0.4-0.5,0.6-0.9,0.7c-0.2,0.1-0.5,0.1-0.8,0.1C153,167.1,151.1,166.4,149.1,165.1z M145.6,158.3c-0.4,0.1-0.6,0.3-0.8,0.6c-0.3,0.6,0,1.6,0.8,2.7c0.8,1.2,2.1,2.3,3.6,3.3c1.9,1.2,3.8,1.9,5.1,1.9 c0.3,0,0.5,0,0.7-0.1c0.4-0.1,0.6-0.3,0.8-0.6c0.3-0.6,0-1.6-0.8-2.7c-0.8-1.2-2.1-2.3-3.6-3.3c-1.9-1.2-3.8-1.9-5.1-1.9 C146,158.2,145.8,158.2,145.6,158.3z"></path> </g> </g> </g> <g> <defs> <rect id="SVGID_00000108281976727398405910000015535521041514050238_" x="149.9" y="97.2" width="57.5" height="102.4"></rect> </defs> <clipPath id="SVGID_00000093882673117619050380000007407424395151230649_"> <use xlink:href="#SVGID_00000108281976727398405910000015535521041514050238_" style="overflow:visible;"></use> </clipPath> <g style="clip-path:url(#SVGID_00000093882673117619050380000007407424395151230649_);"> <path class="st25" d="M161.2,188.2c0-0.1-0.1-0.1-0.1-0.2l0,0l0,0l-0.1-0.1l-0.2-0.2h-0.1c-1-0.5-3,0-5.1,1.4 c-2.5,1.6-4.1,3.9-3.6,5.1l-0.1,0.1l0.3,0.3l0,0l0,0l0,0c0.1,0.1,0.2,0.1,0.2,0.2l0,0l0,0c1,0.5,3,0,5.1-1.4 C160.1,191.6,161.7,189.3,161.2,188.2z"></path> <path class="st6" d="M155.3,188.7c2.5-1.7,5-2.1,5.6-0.9c0.5,1.2-1.1,3.5-3.6,5.1c-2.5,1.7-5,2.1-5.6,0.9 C151.1,192.7,152.7,190.4,155.3,188.7z"></path> <g> <path class="st26" d="M153.5,194c-0.2,0-0.4,0-0.6-0.1c-0.3-0.1-0.5-0.3-0.7-0.5c-0.2-0.5,0-1.2,0.6-2.1 c0.6-0.8,1.5-1.7,2.6-2.4l0,0c1.6-1.1,3.3-1.6,4.2-1.3c0.3,0.1,0.5,0.3,0.7,0.5c0.2,0.5,0,1.2-0.6,2.1c-0.6,0.8-1.5,1.7-2.6,2.4 C155.8,193.5,154.4,194,153.5,194z M159.1,187.8c-0.9,0-2.3,0.5-3.6,1.4c-1,0.7-1.9,1.5-2.5,2.3s-0.8,1.5-0.6,1.9 c0.1,0.2,0.3,0.3,0.5,0.4c0.1,0,0.3,0.1,0.5,0.1c0.9,0,2.3-0.5,3.6-1.4c1-0.7,1.9-1.5,2.5-2.3s0.8-1.5,0.6-1.9 c-0.1-0.2-0.3-0.3-0.5-0.4C159.4,187.8,159.3,187.8,159.1,187.8z"></path> </g> <g> <path class="st26" d="M155.2,191.5c0.1,0,0.1-0.1,0.2-0.1c0.1,0,0.1-0.1,0.2-0.1c0.1-0.1,0.1-0.1,0.1-0.2c0-0.1,0.1-0.2,0.1-0.2 c0.1-0.2,0.2-0.3,0.3-0.5c0.1-0.1,0.2-0.3,0.3-0.4c0.1-0.1,0.2-0.2,0.4-0.3c0.1-0.1,0.3-0.2,0.5-0.3s0.3-0.1,0.4-0.1 c0.1,0,0.2,0,0.3,0s0.2,0.1,0.2,0.1c0.1,0.1,0.1,0.2,0.1,0.3l0.6-0.3v0.3l-0.6,0.3c0,0.1-0.1,0.3-0.2,0.4 c-0.1,0.1-0.2,0.2-0.3,0.4c-0.1,0.1-0.3,0.2-0.4,0.3c-0.2,0.1-0.3,0.2-0.5,0.3l0.1-0.6c0.2-0.1,0.4-0.2,0.5-0.3s0.2-0.2,0.2-0.3 s0-0.1,0-0.1l-0.1-0.1h-0.1c-0.1,0-0.1,0-0.2,0.1c-0.1,0-0.1,0.1-0.2,0.1c-0.1,0-0.1,0.1-0.2,0.1c-0.1,0.1-0.1,0.1-0.1,0.2 c0,0.1-0.1,0.2-0.1,0.3c-0.1,0.2-0.2,0.3-0.3,0.5c-0.1,0.1-0.2,0.3-0.3,0.4c-0.1,0.1-0.2,0.2-0.4,0.3c-0.1,0.1-0.3,0.2-0.5,0.3 s-0.3,0.1-0.4,0.1c-0.1,0-0.2,0-0.3,0s-0.2-0.1-0.2-0.2s-0.1-0.2-0.1-0.3l-0.6,0.2v-0.3l0.6-0.2c0-0.1,0.1-0.2,0.1-0.4 c0.1-0.1,0.2-0.3,0.3-0.4c0.1-0.1,0.3-0.2,0.4-0.4c0.2-0.1,0.4-0.2,0.6-0.3l-0.1,0.6c-0.1,0.1-0.2,0.1-0.3,0.2 c-0.1,0.1-0.2,0.1-0.2,0.2c-0.1,0.1-0.1,0.1-0.1,0.2c0,0.1,0,0.1,0,0.2c0,0.1,0,0.1,0,0.2c0,0,0,0.1,0.1,0.1h0.1 C155.1,191.5,155.2,191.5,155.2,191.5z"></path> </g> </g> </g> </g> <g> <polygon class="st23" points="194.3,141.8 194.3,185.1 192.9,184.4 191.2,185.1 190.5,184.4 188.4,185.1 187,184.6 184.5,185.1 182.2,184.6 179.6,185.1 177.9,184.4 175.5,185.1 173.5,184.6 171.3,185.1 169,184.6 167.4,185.1 165.7,184.6 163.8,185.1 163.8,141.8 "></polygon> <g> <path class="st33" d="M188.9,148.1h-20.4c-0.2,0-0.4-0.2-0.4-0.4l0,0c0-0.2,0.2-0.4,0.4-0.4h20.4c0.2,0,0.4,0.2,0.4,0.4l0,0 C189.3,147.9,189.1,148.1,188.9,148.1z"></path> <path class="st33" d="M188.9,151.1h-20.4c-0.2,0-0.4-0.2-0.4-0.4l0,0c0-0.2,0.2-0.4,0.4-0.4h20.4c0.2,0,0.4,0.2,0.4,0.4l0,0 C189.3,150.9,189.1,151.1,188.9,151.1z"></path> <path class="st33" d="M184.8,154h-12.1c-0.2,0-0.3-0.1-0.3-0.3v-0.2c0-0.2,0.1-0.3,0.3-0.3h12.1c0.2,0,0.3,0.1,0.3,0.3v0.2 C185,153.9,184.9,154,184.8,154z"></path> <path class="st33" d="M184.8,157h-12.1c-0.2,0-0.3-0.1-0.3-0.3v-0.2c0-0.2,0.1-0.3,0.3-0.3h12.1c0.2,0,0.3,0.1,0.3,0.3v0.2 C185,156.9,184.9,157,184.8,157z"></path> <path class="st33" d="M184.8,160h-12.1c-0.2,0-0.3-0.1-0.3-0.3v-0.2c0-0.2,0.1-0.3,0.3-0.3h12.1c0.2,0,0.3,0.1,0.3,0.3v0.2 C185,159.9,184.9,160,184.8,160z"></path> </g> <g> <g> <path class="st33" d="M178.7,177.7c-3.5,0-6.3-2.8-6.3-6.3s2.8-6.3,6.3-6.3s6.3,2.8,6.3,6.3S182.2,177.7,178.7,177.7z M178.7,165.6c-3.2,0-5.8,2.6-5.8,5.8s2.6,5.8,5.8,5.8s5.8-2.6,5.8-5.8C184.5,168.2,181.9,165.6,178.7,165.6z"></path> </g> <polygon class="st9" points="175,169.9 178.8,174.8 181.8,167.5 178.3,171.3 "></polygon> </g> </g> <g> <g> <g> <path class="st16" d="M101.8,146.2c0-0.1-0.8-1.7-0.5-1.8s0.7-0.1,0.8,0.2C102,144.9,101.8,146.2,101.8,146.2z"></path> <path class="st17" d="M89.8,125.7c0,0-4.7-5.6-7.2-2c0,0-1.9,0.8-2.5,3.9c-0.7,3.2,1.5,5.7,2.6,5.1c0.7-0.4,1.2,0.9,1.2,0.9 L89.8,125.7z"></path> <path class="st16" d="M95.6,155.7c3.7-1.4,7.3-7.8,7.3-7.8l-1.2-0.8c-1,1.4-5.4,4.2-5.4,4.2c-0.1-1.2-0.2-2.3-0.4-3.3 c-1.2-6.7-4-8.7-4.8-9.2c-0.1-0.1-0.2-0.1-0.2-0.1s0,0,0,0.1c0,0.2,0,0.6,0.1,1.2C91.4,144.2,92.5,156.8,95.6,155.7z"></path> <path class="st17" d="M83.2,123.1c0,0-0.6-2.5-4.3-1.7c0,0,1.8-0.2,2.3,0.5c0,0-1.4-0.6-2.3-0.1s-1,2.4-0.9,2.9 c0.1,0.6,1.1,2.2,1.7,2.2s1.4-0.6,1.4-0.6L83.2,123.1z"></path> <path class="st16" d="M77.6,162.6c1.8-4.1,2.7-5.3,2.8-6.6c0-1-0.5-2.1-1.5-4.9c-0.2-0.6-0.4-1.3-0.5-2 c-0.8-5.2,2.3-10.9,4.1-11.3c0.5-0.1,1.4-2,1.4-5.1h0.2l4,0.8c0,0-0.1,1.2-0.1,2.4c0,1,0.1,1.9,0.3,2c0.3,0,0.5,0,0.5,0 s3.3,4.6,3.6,8.9c0.3,4.3-2.7,6.1,0,14.7C95.1,170.3,76.6,164.8,77.6,162.6z"></path> <path class="st20" d="M88.2,133.6c0,0-0.1,1.2-0.1,2.4c-2.2-0.1-3.4-2.1-3.9-3.2L88.2,133.6z"></path> <path class="st17" d="M83.8,132.4c0,0-1.2-1.8-1.4-3.4c-0.2-1.1,0.4-5.3,4.6-4.7c0,0,1.2,0.1,2.4,0.9c0.9,0.6,2.2,1.9,0.8,5.6 l-0.4,1.2L83.8,132.4z"></path> <path class="st16" d="M88.9,134.7c0,0-5.3,0.1-5.3-3.2s-0.7-5.5,2.7-5.7c3.4-0.2,4,1.1,4.3,2.1C90.9,129.1,90.3,134.6,88.9,134.7 z"></path> <path class="st17" d="M88.7,125.8c0,0-1.4,3.8-3.6,4.4c-2.2,0.6-3.2,0-3.2,0s1.7-1.3,2-3.7C83.9,126.4,87.6,123.9,88.7,125.8z"></path> <path class="st17" d="M88.3,126.1c0,0,1.1,0.9,1.3,1.7c0.3,0.8,0.4,2.6,0.9,2.5c0,0,1.1-2.6-0.1-4.1 C89.1,124.6,88.3,126.1,88.3,126.1z"></path> <linearGradient id="SVGID_00000100377910348289338210000016455985330111108527_" gradientUnits="userSpaceOnUse" x1="81.0782" y1="106.4" x2="92.9247" y2="106.4" gradientTransform="matrix(1 0 0 -1 0 294)"> <stop offset="0" style="stop-color:#1269B2"></stop> <stop offset="1" style="stop-color:#0049AA"></stop> </linearGradient> <path style="fill:url(#SVGID_00000100377910348289338210000016455985330111108527_);" d="M82.3,202.2c1.3,5.3,3.3,9.3,3.3,9.3 l1.7-0.1c0,0-0.8-4-0.8-9.5c0-3.8,0.5-8.3,2-12.6c5.2-14.8,4.3-25.6,4.3-25.6l-9.8,1.1l-0.5,0.1c0,4.5-0.2,10.6-0.3,15.3 c-0.1,4.3-0.2,7.5-0.2,7.5C80.4,191.7,81,197.4,82.3,202.2z"></path> <path class="st16" d="M70.8,167l1.6,0.5c0,0,5.2-8.6,5.7-10.9c0.2-0.7,0.5-2.2,1-3.8c0.9-3.4,2.1-7.6,2.1-7.6l0.4-1.7l1.3-5.7 c0,0-2.5,0.3-4,0.9c-0.5,0.2-0.9,0.4-1,0.7c-1.1,2.4-2.2,8.4-2.9,12.8c-0.4,2.4-0.8,4.3-0.9,4.7C73.5,157.9,72,164,70.8,167z"></path> <linearGradient id="SVGID_00000150816531962606470830000004783069712810379914_" gradientUnits="userSpaceOnUse" x1="76.5298" y1="107.25" x2="88.1694" y2="107.25" gradientTransform="matrix(1 0 0 -1 0 294)"> <stop offset="0" style="stop-color:#1269B2"></stop> <stop offset="1" style="stop-color:#0049AA"></stop> </linearGradient> <path style="fill:url(#SVGID_00000150816531962606470830000004783069712810379914_);" d="M76.7,201.4c0.6,6,3,9.9,3,9.9l0.8,0.6 c0,0,0.8-4.2,1.3-9.2c0.5-4.8,1.3-9.8,2.1-11.4c3.3-6.1,4.2-29.2,4.2-29.2l-9.9-0.5c-1,1.7-1.4,4.4-1.5,7.5 c-0.3,7.9,1.6,18.1,1.9,19.6l0,0c0,0.1,0,0.2-0.1,0.3C76.6,193,76.3,197.4,76.7,201.4z"></path> <path class="st17" d="M88.5,126.2c0,0-1,4-3.8,5.3c0,0,2.8-2.5,3-5.1C88,123.7,88.5,126.2,88.5,126.2z"></path> <path class="st17" d="M76.4,165.5c0,0.3,0,0.6,0.1,0.8c0.2,0.7,0.9,1,2.7,0.8c1.1-0.1,1.5-1.9,1.8-3.4c0.6,2.2,1.5,3.4,2.7,3.7 c1.7,0.4,10.2,1.4,10.8-2.6c0.6-4.5-1.2-12.4-1.3-16.6c0.3-1.5,0.3-2.8,0.3-4c-0.1-3-1-4.7-1.6-5.4c-0.2-0.1-0.4-0.2-1.2-0.4 c-0.4-0.1-1-0.1-1.7-0.2h-0.3c0.1,0.3,2.1,3.2,1.9,3.9c-0.2,0.8-7,0.1-7.5-0.4c-0.5-0.4-1.2-3.8-1.2-3.8s-2.4,0.3-3.6,1.1l0,0 c-0.1,0.1-0.3,0.2-0.3,0.3c-1.3,2.4-2.5,8.5-3.4,12.9c2.2,1.2,4,0.8,4.6,0.7C78.2,157.9,76.5,163.3,76.4,165.5z"></path> <path class="st16" d="M101.8,147.1c0-0.2-0.1-2.5,0.3-3s1.3-1.2,1.5-1.2c0.3,0,1.3,1.4,1,2.5s-1.6,2.5-1.6,2.5L101.8,147.1z"></path> <g> <path class="st11" d="M99.9,144.2l2.4,0.7c0.1,0,0.2,0,0.2-0.1l1.4-4.6c0-0.1,0-0.2-0.1-0.2l-2.4-0.7c-0.1,0-0.2,0-0.2,0.1 l-1.4,4.6C99.7,144.1,99.8,144.2,99.9,144.2z"></path> <path class="st17" d="M100.5,144.4l2.2,0.7c0.1,0,0.3,0,0.3-0.2l1.3-4.4c0-0.1,0-0.3-0.2-0.3l-2.2-0.7c-0.1,0-0.3,0-0.3,0.2 l-1.3,4.4C100.3,144.2,100.4,144.4,100.5,144.4z"></path> </g> <path class="st16" d="M76.7,201.4c0.6,6,3,9.9,3,9.9l0.8,0.8c0,0,0.8-4.4,1.3-9.4C81.3,202.7,78.7,202.7,76.7,201.4z"></path> <path class="st16" d="M82.3,202.2c1.3,5.3,3.3,9.3,3.3,9.3l1.7-0.1c0,0-0.8-4-0.8-9.5C85.9,202.2,84.7,202.5,82.3,202.2z"></path> <g> <path class="st17" d="M84.6,213h1.1c0.4-0.1,0.6-0.2,1-0.2c0.6-0.1,0.8,0.2,0.9,0.2l0,0h4.7c0.1-0.2,0-0.6-0.1-0.8 s-0.2-0.3-0.4-0.4c-0.5-0.1-1.5-0.3-2.4-1.1c-0.5-0.5-2.4-1.7-2.4-1.7l0,0c0,0-0.2,0.1-1.1,0.8c-0.5,0.4-1.2-0.5-1.2-0.5 s-0.1,0.1-0.3,0.3c-0.1,0.2-0.2,0.4-0.1,0.7c0.1,0.4-0.2,1.2-0.3,1.7c-0.1,0.3-0.2,0.6-0.2,0.6S83.6,212.9,84.6,213z"></path> <path class="st36" d="M84.3,209.6c0.3,0.2,0.8,0.6,1.2,0.6c0.5,0.1,1.4-1.2,1.4-1.2l0,0c0,0-0.2,0.1-1.1,0.8 c-0.5,0.4-1.2-0.5-1.2-0.5S84.4,209.4,84.3,209.6z"></path> <path class="st36" d="M84.6,213h1.1c0.4-0.1,0.6-0.2,1-0.2c0.6-0.1,0.8,0.2,0.9,0.2l0,0h4.7c0.1-0.2,0-0.6-0.1-0.8 c-0.1-0.1-0.2,0.6-0.3,0.7c-0.1,0.1-3.8,0-4.1-0.1c-0.2-0.2-0.9-0.4-1.8-0.2c-0.8,0.2-2-0.3-2.2-0.4c-0.1,0.3-0.2,0.6-0.2,0.6 S83.6,212.9,84.6,213z"></path> </g> <g> <path class="st17" d="M78.7,213h1.1c0.4-0.1,0.6-0.2,1-0.2c0.6-0.1,0.8,0.2,0.9,0.2l0,0h4.7c0.1-0.2,0-0.6-0.1-0.8 s-0.2-0.3-0.4-0.4c-0.5-0.1-1.5-0.3-2.4-1.1C83,210.2,81,209,81,209l0,0c0,0-0.2,0.1-1.1,0.8c-0.5,0.4-1.2-0.5-1.2-0.5 s-0.1,0.1-0.3,0.3c-0.1,0.2-0.2,0.4-0.1,0.7c0.1,0.4-0.2,1.2-0.3,1.7c-0.1,0.3-0.2,0.6-0.2,0.6S77.7,212.9,78.7,213z"></path> <path class="st36" d="M78.4,209.6c0.3,0.2,0.8,0.6,1.2,0.6c0.5,0.1,1.4-1.2,1.4-1.2l0,0c0,0-0.2,0.1-1.1,0.8 c-0.5,0.4-1.2-0.5-1.2-0.5S78.5,209.4,78.4,209.6z"></path> <path class="st17" d="M78.7,213h1.1c0.4-0.1,0.6-0.2,1-0.2c0.6-0.1,0.8,0.2,0.9,0.2l0,0h4.7c0.1-0.2,0-0.6-0.1-0.8 c-0.1-0.1-0.2,0.6-0.3,0.7c-0.1,0.1-3.8,0-4.1-0.1c-0.2-0.2-0.9-0.4-1.8-0.2c-0.8,0.2-2-0.3-2.2-0.4c-0.1,0.3-0.2,0.6-0.2,0.6 S77.7,212.9,78.7,213z"></path> </g> <path class="st17" d="M76.4,165.5c1.2-0.4,2.7-1.4,4.5-3.8c4.8-6.2,0.4-13.5-0.2-13.6s-1.7,4.7-1.7,4.7 C78.2,157.9,76.5,163.3,76.4,165.5z"></path> <path class="st17" d="M91.4,138.6c0,0,3.3,1.6,4.4,8.3c0,0-1.1,1.5-2.6,1.9c-0.2,0.1-0.4,0.1-0.7,0.1 C90.7,149,91.4,138.6,91.4,138.6z"></path> <path class="st16" d="M103.9,143.1c0,0-1-1.6-1.3-1.5c-0.4,0.1,0.9,2.1,0.9,2.1s-0.9-1.5-1.1-1.4c-0.3,0.3,0.2,1.2,0.7,1.9 c0,0-0.9-0.9-1-0.7c-0.1,0.5,1,1.9,1,1.9l0.6-1.5v-0.8H103.9z"></path> <path class="st16" d="M104.6,144.5c0-0.2-0.3-3.9-0.4-3.6c-0.1,0.4-0.4,2.3-0.4,2.3L104.6,144.5z"></path> </g> </g> <path class="st23" d="M87.9,132.7c0,0,0.1,0.4,1.1,0.3c0,0,0.8,0,0.8-0.5C89.7,132.6,88.9,132.3,87.9,132.7z"></path> </g> <g> <circle class="st23" cx="255.4" cy="108.2" r="3.6"></circle> <g> <path class="st6" d="M255.9,109c0-0.1,0-0.1,0-0.2s-0.1-0.1-0.1-0.2c0,0-0.1-0.1-0.2-0.1c-0.1,0-0.2-0.1-0.3-0.1 c-0.2-0.1-0.4-0.1-0.5-0.2s-0.3-0.2-0.4-0.3c-0.1-0.1-0.2-0.2-0.2-0.3c-0.1-0.1-0.1-0.3-0.1-0.4s0-0.3,0.1-0.4s0.1-0.2,0.2-0.3 c0.1-0.1,0.2-0.2,0.4-0.2c0.1-0.1,0.3-0.1,0.5-0.1v-0.6h0.5v0.6c0.2,0,0.3,0.1,0.4,0.1c0.1,0.1,0.2,0.2,0.3,0.3 c0.1,0.1,0.2,0.2,0.2,0.4c0,0.1,0.1,0.3,0.1,0.5H256c0-0.2,0-0.4-0.1-0.5s-0.2-0.2-0.4-0.2c-0.1,0-0.2,0-0.2,0 c-0.1,0-0.1,0.1-0.2,0.1L255,107c0,0.1,0,0.1,0,0.2s0,0.1,0,0.2s0,0.1,0.1,0.1c0,0,0.1,0.1,0.2,0.1c0.1,0,0.2,0.1,0.3,0.1 c0.2,0.1,0.3,0.1,0.5,0.2c0.1,0.1,0.3,0.2,0.4,0.3c0.1,0.1,0.2,0.2,0.2,0.3c0.1,0.1,0.1,0.3,0.1,0.4c0,0.2,0,0.3-0.1,0.4 s-0.1,0.2-0.2,0.3c-0.1,0.1-0.2,0.2-0.4,0.2c-0.1,0.1-0.3,0.1-0.5,0.1v0.5h-0.5v-0.5c-0.2,0-0.3-0.1-0.5-0.1 c-0.1-0.1-0.3-0.1-0.4-0.2c-0.1-0.1-0.2-0.2-0.3-0.4c-0.1-0.2-0.1-0.3-0.1-0.5h0.8c0,0.1,0,0.2,0,0.3c0,0.1,0.1,0.2,0.1,0.2 c0.1,0.1,0.1,0.1,0.2,0.1c0.1,0,0.2,0,0.2,0c0.1,0,0.2,0,0.2,0c0.1,0,0.1-0.1,0.2-0.1l0.1-0.1C255.9,109.2,255.9,109.1,255.9,109z "></path> </g> </g> <g> <circle class="st23" cx="221.5" cy="79.5" r="3.6"></circle> <g> <path class="st6" d="M221.9,80.4c0-0.1,0-0.1,0-0.2s-0.1-0.1-0.1-0.2c0,0-0.1-0.1-0.2-0.1c-0.1,0-0.2-0.1-0.3-0.1 c-0.2-0.1-0.4-0.1-0.5-0.2s-0.3-0.2-0.4-0.3c-0.1-0.1-0.2-0.2-0.2-0.3c-0.1-0.1-0.1-0.3-0.1-0.4s0-0.3,0.1-0.4s0.1-0.2,0.2-0.3 c0.1-0.1,0.2-0.2,0.4-0.2c0.1-0.1,0.3-0.1,0.5-0.1V77h0.5v0.6c0.2,0,0.3,0.1,0.4,0.1c0.1,0.1,0.2,0.2,0.3,0.3 c0.1,0.1,0.2,0.2,0.2,0.4c0,0.1,0.1,0.3,0.1,0.5H222c0-0.2,0-0.4-0.1-0.5s-0.2-0.2-0.4-0.2c-0.1,0-0.2,0-0.2,0 c-0.1,0-0.1,0.1-0.2,0.1l-0.1,0.1c0,0.1,0,0.1,0,0.2s0,0.1,0,0.2s0,0.1,0.1,0.1c0,0,0.1,0.1,0.2,0.1c0.1,0,0.2,0.1,0.3,0.1 c0.2,0.1,0.3,0.1,0.5,0.2c0.1,0.1,0.3,0.2,0.4,0.3c0.1,0.1,0.2,0.2,0.2,0.3c0.1,0.1,0.1,0.3,0.1,0.4c0,0.2,0,0.3-0.1,0.4 s-0.1,0.2-0.2,0.3c-0.1,0.1-0.2,0.2-0.4,0.2c-0.1,0.1-0.3,0.1-0.5,0.1v0.5h-0.5v-0.5c-0.2,0-0.3-0.1-0.5-0.1 c-0.1-0.1-0.3-0.1-0.4-0.2c-0.1-0.1-0.2-0.2-0.3-0.4c-0.1-0.2-0.1-0.3-0.1-0.5h0.8c0,0.1,0,0.2,0,0.3c0,0.1,0.1,0.2,0.1,0.2 c0.1,0.1,0.1,0.1,0.2,0.1c0.1,0,0.2,0,0.2,0c0.1,0,0.2,0,0.2,0c0.1,0,0.1-0.1,0.2-0.1l0.1-0.1C221.9,80.5,221.9,80.4,221.9,80.4z"></path> </g> </g> <g> <circle class="st23" cx="268.4" cy="97.9" r="5.2"></circle> <g> <path class="st6" d="M269.1,99.1c0-0.1,0-0.2,0-0.3c0-0.1-0.1-0.2-0.1-0.2c-0.1-0.1-0.2-0.1-0.3-0.2c-0.1-0.1-0.2-0.1-0.4-0.2 c-0.3-0.1-0.5-0.2-0.7-0.3c-0.2-0.1-0.4-0.2-0.6-0.4c-0.2-0.1-0.3-0.3-0.4-0.5s-0.1-0.4-0.1-0.6s0-0.4,0.1-0.6s0.2-0.3,0.3-0.5 c0.1-0.1,0.3-0.2,0.5-0.3c0.2-0.1,0.4-0.1,0.7-0.1v-0.8h0.7v0.8c0.2,0,0.4,0.1,0.6,0.2s0.4,0.2,0.5,0.4c0.1,0.2,0.2,0.3,0.3,0.5 c0.1,0.2,0.1,0.4,0.1,0.7h-1.2c0-0.3-0.1-0.5-0.2-0.7s-0.3-0.2-0.5-0.2c-0.1,0-0.2,0-0.3,0c-0.1,0-0.2,0.1-0.2,0.1 c-0.1,0.1-0.1,0.1-0.1,0.2s0,0.2,0,0.3c0,0.1,0,0.2,0,0.3c0,0.1,0.1,0.1,0.1,0.2c0.1,0.1,0.2,0.1,0.3,0.2c0.1,0.1,0.2,0.1,0.4,0.2 c0.3,0.1,0.5,0.2,0.7,0.3c0.2,0.1,0.4,0.2,0.6,0.4c0.2,0.1,0.3,0.3,0.4,0.5s0.1,0.4,0.1,0.6s0,0.4-0.1,0.6s-0.2,0.3-0.3,0.5 c-0.1,0.1-0.3,0.2-0.5,0.3c-0.2,0.1-0.4,0.1-0.7,0.1v0.8h-0.7v-0.8c-0.2,0-0.4-0.1-0.7-0.2c-0.2-0.1-0.4-0.2-0.6-0.3 c-0.2-0.1-0.3-0.3-0.4-0.5s-0.1-0.5-0.1-0.8h1.2c0,0.2,0,0.3,0.1,0.5c0,0.1,0.1,0.2,0.2,0.3c0.1,0.1,0.2,0.1,0.3,0.2 c0.1,0,0.2,0,0.3,0c0.1,0,0.2,0,0.3,0c0.1,0,0.2-0.1,0.2-0.1c0.1-0.1,0.1-0.1,0.2-0.2C269,99.3,269.1,99.2,269.1,99.1z"></path> </g> </g> <g> <ellipse class="st23" cx="253.5" cy="71.8" rx="8.6" ry="8.6"></ellipse> <g> <path class="st6" d="M254.6,73.7c0-0.2,0-0.3-0.1-0.5c0-0.1-0.1-0.3-0.2-0.4c-0.1-0.1-0.3-0.2-0.4-0.3c-0.2-0.1-0.4-0.2-0.6-0.3 c-0.4-0.2-0.8-0.3-1.2-0.5s-0.7-0.4-0.9-0.6c-0.3-0.2-0.4-0.5-0.6-0.8c-0.1-0.3-0.2-0.7-0.2-1.1s0.1-0.7,0.2-1 c0.1-0.3,0.3-0.5,0.5-0.8c0.2-0.2,0.5-0.4,0.8-0.5s0.7-0.2,1.1-0.2v-1.3h1.1v1.4c0.4,0.1,0.7,0.2,1,0.3c0.3,0.2,0.6,0.4,0.8,0.6 c0.2,0.2,0.4,0.5,0.5,0.9c0.1,0.3,0.2,0.7,0.2,1.1h-1.9c0-0.5-0.1-0.9-0.3-1.1c-0.2-0.3-0.5-0.4-0.9-0.4c-0.2,0-0.4,0-0.5,0.1 s-0.3,0.1-0.4,0.2c-0.1,0.1-0.2,0.2-0.2,0.3c0,0.1-0.1,0.3-0.1,0.4c0,0.2,0,0.3,0.1,0.4c0,0.1,0.1,0.2,0.2,0.4 c0.1,0.1,0.3,0.2,0.4,0.3c0.2,0.1,0.4,0.2,0.7,0.3c0.4,0.2,0.8,0.3,1.2,0.5s0.7,0.4,0.9,0.6c0.3,0.2,0.4,0.5,0.6,0.8 c0.1,0.3,0.2,0.6,0.2,1.1c0,0.4-0.1,0.7-0.2,1s-0.3,0.5-0.6,0.7c-0.2,0.2-0.5,0.4-0.9,0.5c-0.3,0.1-0.7,0.2-1.1,0.2v1.2h-1.1V76 c-0.4,0-0.7-0.1-1.1-0.3c-0.3-0.1-0.7-0.3-0.9-0.6c-0.3-0.2-0.5-0.5-0.6-0.9c-0.2-0.4-0.2-0.8-0.2-1.3h1.9c0,0.3,0,0.5,0.1,0.7 s0.2,0.4,0.3,0.5s0.3,0.2,0.5,0.3c0.2,0.1,0.4,0.1,0.5,0.1c0.2,0,0.4,0,0.6-0.1c0.2-0.1,0.3-0.1,0.4-0.2c0.1-0.1,0.2-0.2,0.2-0.3 C254.5,74,254.6,73.9,254.6,73.7z"></path> </g> </g> <g> <ellipse class="st23" cx="198.5" cy="75.1" rx="5.7" ry="5.7"></ellipse> <g> <path class="st6" d="M199.1,76.4c0-0.1,0-0.2,0-0.3c0-0.1-0.1-0.2-0.2-0.2c-0.1-0.1-0.2-0.1-0.3-0.2s-0.3-0.1-0.4-0.2 c-0.3-0.1-0.6-0.2-0.8-0.3c-0.2-0.1-0.4-0.3-0.6-0.4c-0.2-0.2-0.3-0.3-0.4-0.5c-0.1-0.2-0.1-0.4-0.1-0.7c0-0.2,0-0.5,0.1-0.6 c0.1-0.2,0.2-0.4,0.4-0.5s0.3-0.3,0.6-0.3c0.2-0.1,0.5-0.1,0.7-0.2v-0.9h0.7V72c0.3,0,0.5,0.1,0.7,0.2s0.4,0.2,0.5,0.4 c0.1,0.2,0.3,0.4,0.3,0.6c0.1,0.2,0.1,0.5,0.1,0.8h-1.3c0-0.3-0.1-0.6-0.2-0.8c-0.1-0.2-0.3-0.3-0.6-0.3c-0.1,0-0.3,0-0.4,0.1 c-0.1,0-0.2,0.1-0.2,0.2c-0.1,0.1-0.1,0.1-0.1,0.2s0,0.2,0,0.3c0,0.1,0,0.2,0,0.3c0,0.1,0.1,0.2,0.2,0.2c0.1,0.1,0.2,0.1,0.3,0.2 s0.3,0.1,0.5,0.2c0.3,0.1,0.6,0.2,0.8,0.3c0.2,0.1,0.4,0.3,0.6,0.4c0.2,0.2,0.3,0.3,0.4,0.5c0.1,0.2,0.1,0.4,0.1,0.7 c0,0.2,0,0.5-0.1,0.7s-0.2,0.4-0.4,0.5s-0.3,0.3-0.6,0.3c-0.2,0.1-0.5,0.1-0.7,0.2V79H198v-0.8c-0.2,0-0.5-0.1-0.7-0.2 s-0.4-0.2-0.6-0.4c-0.2-0.2-0.3-0.4-0.4-0.6c-0.1-0.2-0.2-0.5-0.1-0.9h1.3c0,0.2,0,0.4,0.1,0.5s0.1,0.2,0.2,0.3 c0.1,0.1,0.2,0.1,0.3,0.2c0.1,0,0.2,0.1,0.4,0.1c0.1,0,0.3,0,0.4,0c0.1,0,0.2-0.1,0.3-0.1c0.1-0.1,0.1-0.1,0.2-0.2 C199.1,76.6,199.1,76.5,199.1,76.4z"></path> </g> </g> <g> <ellipse class="st23" cx="222.1" cy="58.3" rx="7.4" ry="7.4"></ellipse> <g> <path class="st6" d="M223,60c0-0.2,0-0.3-0.1-0.4c0-0.1-0.1-0.2-0.2-0.3c-0.1-0.1-0.2-0.2-0.4-0.3s-0.3-0.2-0.6-0.2 c-0.4-0.1-0.7-0.3-1-0.4c-0.3-0.1-0.6-0.3-0.8-0.5s-0.4-0.4-0.5-0.7s-0.2-0.6-0.2-0.9c0-0.3,0.1-0.6,0.2-0.8 c0.1-0.2,0.3-0.5,0.5-0.7s0.4-0.3,0.7-0.4c0.3-0.1,0.6-0.2,0.9-0.2V53h0.9v1.2c0.3,0,0.6,0.1,0.9,0.3c0.3,0.1,0.5,0.3,0.7,0.5 s0.3,0.5,0.4,0.8c0.1,0.3,0.1,0.6,0.1,1h-1.7c0-0.4-0.1-0.8-0.3-1s-0.4-0.3-0.8-0.3c-0.2,0-0.3,0-0.5,0.1c-0.1,0-0.2,0.1-0.3,0.2 c-0.1,0.1-0.1,0.2-0.2,0.3c0,0.1-0.1,0.2-0.1,0.4c0,0.1,0,0.3,0.1,0.4c0,0.1,0.1,0.2,0.2,0.3c0.1,0.1,0.2,0.2,0.4,0.3 s0.3,0.2,0.6,0.3c0.4,0.1,0.7,0.3,1,0.4c0.3,0.2,0.6,0.3,0.8,0.5s0.4,0.4,0.5,0.7s0.2,0.6,0.2,0.9c0,0.3-0.1,0.6-0.2,0.8 c-0.1,0.2-0.3,0.5-0.5,0.6c-0.2,0.2-0.4,0.3-0.7,0.4c-0.3,0.1-0.6,0.2-1,0.2v1.1h-0.9v-1.1c-0.3,0-0.6-0.1-0.9-0.2 c-0.3-0.1-0.6-0.3-0.8-0.5s-0.4-0.5-0.5-0.8s-0.2-0.7-0.2-1.1h1.7c0,0.3,0,0.5,0.1,0.6c0.1,0.2,0.2,0.3,0.3,0.4s0.3,0.2,0.4,0.2 c0.2,0,0.3,0.1,0.5,0.1s0.3,0,0.5-0.1c0.1,0,0.3-0.1,0.3-0.2c0.1-0.1,0.2-0.2,0.2-0.3C223,60.3,223,60.1,223,60z"></path> </g> </g> <g> <path class="st16" d="M71.2,166.1c0,0-1.9,1.3-2.2,1.8s-1,2.5-1,2.5s0.5,0.1,1-0.8c0.5-0.9,2.1-0.8,2.7-1.3 c0.5-0.5,1.2-1.8,1.2-1.8L71.2,166.1z"></path> <path class="st16" d="M72.6,167c0,0-0.3,1.5-0.7,2c-0.4,0.4-0.9,1.2-1.2,1c-0.2-0.2,0.2-1.8,0.2-1.8L72.6,167z"></path> <path class="st16" d="M69.3,168.1c0,0.1-1.7,1.9-1.7,1.9s0.6,0.3,0.8,0C68.5,169.7,69.3,168.1,69.3,168.1z"></path> </g> </svg> 